<svg width="631" height="631" viewBox="0 0 631 631" fill="none" xmlns="http://www.w3.org/2000/svg">
<g opacity="0.6">
<path opacity="0.6" d="M524.454 315.88C524.454 431.07 430.904 524.454 315.501 524.454C200.097 524.454 106.547 431.07 106.547 315.88C106.547 200.689 200.097 107.306 315.501 107.306C430.904 107.306 524.454 200.689 524.454 315.88Z" stroke="url(#paint0_linear_176_450)" stroke-width="2"/>
<circle opacity="0.65" cx="315.5" cy="315.5" r="198.323" stroke="url(#paint1_linear_176_450)" stroke-width="2"/>
<circle opacity="0.8" cx="315.5" cy="315.5" r="187.693" stroke="url(#paint2_linear_176_450)" stroke-width="2"/>
<path opacity="0.55" d="M534.325 315.88C534.325 436.522 436.355 534.325 315.5 534.325C194.644 534.325 96.6748 436.522 96.6748 315.88C96.6748 195.237 194.644 97.4346 315.5 97.4346C436.355 97.4346 534.325 195.237 534.325 315.88Z" stroke="url(#paint3_linear_176_450)" stroke-width="2"/>
<path opacity="0.5" d="M544.196 315.88C544.196 441.974 441.807 544.196 315.5 544.196C189.193 544.196 86.8037 441.974 86.8037 315.88C86.8037 189.786 189.193 87.5635 315.5 87.5635C441.807 87.5635 544.196 189.786 544.196 315.88Z" stroke="url(#paint4_linear_176_450)" stroke-width="2"/>
<path opacity="0.45" d="M553.308 315.88C553.308 447.005 446.671 553.308 315.12 553.308C183.57 553.308 76.9326 447.005 76.9326 315.88C76.9326 184.754 183.57 78.4512 315.12 78.4512C446.671 78.4512 553.308 184.754 553.308 315.88Z" stroke="url(#paint5_linear_176_450)" stroke-width="2"/>
<path opacity="0.4" d="M562.42 315.88C562.42 452.461 451.869 563.179 315.5 563.179C179.131 563.179 68.5801 452.461 68.5801 315.88C68.5801 179.298 179.131 68.5801 315.5 68.5801C451.869 68.5801 562.42 179.298 562.42 315.88Z" stroke="url(#paint6_linear_176_450)" stroke-width="2"/>
<path opacity="0.35" d="M572.291 315.88C572.291 457.913 457.321 573.051 315.5 573.051C173.68 573.051 58.709 457.913 58.709 315.88C58.709 173.847 173.68 58.709 315.5 58.709C457.321 58.709 572.291 173.847 572.291 315.88Z" stroke="url(#paint7_linear_176_450)" stroke-width="2"/>
<path opacity="0.3" d="M582.163 315.88C582.163 463.365 462.773 582.922 315.5 582.922C168.228 582.922 48.8379 463.365 48.8379 315.88C48.8379 168.395 168.228 48.8379 315.5 48.8379C462.773 48.8379 582.163 168.395 582.163 315.88Z" stroke="url(#paint8_linear_176_450)" stroke-width="2"/>
<path opacity="0.25" d="M592.034 315.88C592.034 468.816 468.225 592.794 315.5 592.794C162.776 592.794 38.9668 468.816 38.9668 315.88C38.9668 162.944 162.776 38.9668 315.5 38.9668C468.225 38.9668 592.034 162.944 592.034 315.88Z" stroke="url(#paint9_linear_176_450)" stroke-width="2"/>
<path opacity="0.2" d="M601.146 315.5C601.146 472.835 473.26 600.386 315.5 600.386C157.74 600.386 29.8545 472.835 29.8545 315.5C29.8545 158.164 157.74 30.6133 315.5 30.6133C473.26 30.6133 601.146 158.164 601.146 315.5Z" stroke="url(#paint10_linear_176_450)" stroke-width="2"/>
<path opacity="0.15" d="M610.258 315.5C610.258 478.289 478.122 610.257 315.121 610.257C152.12 610.257 19.9834 478.289 19.9834 315.5C19.9834 152.711 152.12 20.7422 315.121 20.7422C478.122 20.7422 610.258 152.711 610.258 315.5Z" stroke="url(#paint11_linear_176_450)" stroke-width="2"/>
<path opacity="0.1" d="M620.128 315.5C620.128 483.74 483.572 620.129 315.12 620.129C146.667 620.129 10.1113 483.74 10.1113 315.5C10.1113 147.259 146.667 10.8711 315.12 10.8711C483.572 10.8711 620.128 147.259 620.128 315.5Z" stroke="url(#paint12_linear_176_450)" stroke-width="2"/>
<circle opacity="0.05" cx="315.5" cy="315.5" r="314.5" stroke="url(#paint13_linear_176_450)" stroke-width="2"/>
</g>
<path d="M73 442.551C73.1868 441.617 73.3268 440.636 73.607 439.656C74.4949 436.773 76.3167 434.268 78.7852 432.535C81.2538 430.802 84.2288 429.939 87.2415 430.084C89.0813 430.149 90.8893 430.583 92.5578 431.361C94.2263 432.139 95.7212 433.245 96.9537 434.613L92.0509 439.469L92.4711 439.889L96.0665 443.484C97.431 444.853 99.2071 445.736 101.122 445.997C103.037 446.259 104.984 445.885 106.666 444.932C106.993 444.792 107.133 444.745 107.413 445.025L118.9 456.512C119.188 456.778 119.401 457.115 119.518 457.489C119.635 457.863 119.652 458.262 119.567 458.645C119.482 459.028 119.298 459.381 119.033 459.671C118.769 459.96 118.433 460.175 118.059 460.294C117.649 460.427 117.209 460.435 116.793 460.319C116.378 460.203 116.006 459.967 115.724 459.64C112.97 456.886 110.215 454.177 107.506 451.422C107.382 451.278 107.273 451.122 107.18 450.955C106.199 451.983 105.265 452.87 104.331 453.804L104.705 454.177L112.923 462.395C114.137 463.656 113.857 465.477 112.316 466.177C110.775 466.878 110.541 466.364 109.701 465.524L101.997 457.819C101.716 457.539 101.483 457.212 101.249 456.932L98.3078 459.874C98.482 459.932 98.6414 460.028 98.7747 460.154L106.946 468.325C108.113 469.493 107.973 471.127 106.666 471.967C106.246 472.225 105.754 472.336 105.264 472.286C104.775 472.235 104.316 472.025 103.958 471.687C103.243 470.97 102.36 470.444 101.389 470.158C100.418 469.873 99.3901 469.837 98.4012 470.053H98.121C97.1405 467.205 95.1327 465.711 92.191 465.477C91.6774 462.349 89.9497 460.481 86.8679 459.78C86.8171 459.137 86.7235 458.497 86.5878 457.866C86.3686 456.994 85.9598 456.18 85.3903 455.484C84.8209 454.788 84.1049 454.226 83.2934 453.838C82.4818 453.45 81.5947 453.246 80.6953 453.24C79.7958 453.234 78.9061 453.426 78.0896 453.804C77.9436 453.883 77.7742 453.907 77.6117 453.873C77.4492 453.839 77.3041 453.748 77.2024 453.617C74.9102 451.388 73.4586 448.435 73.0934 445.259C73.0849 445.115 73.0533 444.973 73 444.839V442.551Z" fill="#1080EC"/>
<path d="M122.028 454.037L107.227 439.282L106.013 440.543C103.818 442.69 100.83 442.69 98.635 440.496L97.7012 439.655C97.7946 439.562 97.7946 439.515 97.7946 439.469C99.8958 437.414 101.857 435.219 104.098 433.352C108.16 429.896 112.877 429.103 117.826 431.017C122.776 432.931 125.671 436.62 126.418 441.85C127.165 447.08 125.53 450.675 122.028 454.037Z" fill="#1080EC"/>
<path d="M101.903 476.356C101.732 476.799 101.512 477.222 101.25 477.617C100.721 478.239 100.144 478.816 99.522 479.345C99.3178 479.552 99.0743 479.717 98.8058 479.83C98.5372 479.942 98.249 480 97.9578 480C97.6666 480 97.3784 479.942 97.1098 479.83C96.8413 479.717 96.5978 479.552 96.3936 479.345C96.186 479.14 96.0212 478.897 95.9087 478.628C95.7962 478.36 95.7383 478.072 95.7383 477.78C95.7383 477.489 95.7962 477.201 95.9087 476.933C96.0212 476.664 96.186 476.42 96.3936 476.216C96.9539 475.609 97.5609 475.002 98.1679 474.442C98.4749 474.137 98.8704 473.936 99.2981 473.869C99.7257 473.802 100.164 473.872 100.549 474.068C101.436 474.442 101.81 475.142 101.903 476.356Z" fill="#1080EC"/>
<path d="M82.8523 459.407C82.8617 459.699 82.8129 459.989 82.7087 460.262C82.6045 460.534 82.4469 460.783 82.2452 460.994C81.6849 461.555 81.1246 462.162 80.5176 462.675C80.1027 463.09 79.5401 463.323 78.9534 463.323C78.3667 463.323 77.804 463.09 77.3891 462.675C76.9743 462.261 76.7412 461.698 76.7412 461.111C76.7412 460.524 76.9743 459.962 77.3891 459.547C77.9612 458.921 78.5692 458.328 79.2102 457.773C79.5146 457.462 79.9138 457.261 80.3449 457.202C80.776 457.142 81.2146 457.228 81.5915 457.446C81.9718 457.612 82.2945 457.886 82.5188 458.235C82.7432 458.584 82.8592 458.992 82.8523 459.407V459.407Z" fill="#1080EC"/>
<path d="M90.6965 475.656C89.5292 475.61 88.7821 475.189 88.4086 474.349C88.212 473.963 88.1423 473.525 88.2094 473.098C88.2765 472.67 88.4769 472.274 88.7821 471.968C89.3686 471.295 89.9922 470.656 90.6498 470.053C91.0777 469.702 91.6203 469.522 92.1732 469.547C92.726 469.572 93.25 469.801 93.6442 470.19C94.0384 470.578 94.2749 471.098 94.3083 471.651C94.3417 472.203 94.1695 472.748 93.825 473.182C93.2062 473.855 92.5515 474.494 91.8639 475.096C91.4944 475.321 91.1033 475.509 90.6965 475.656V475.656Z" fill="#1080EC"/>
<path d="M88.3159 466.084C88.1235 466.579 87.8727 467.049 87.5688 467.485C87.0412 468.121 86.4635 468.715 85.8412 469.259C85.4201 469.668 84.854 469.893 84.2673 469.884C83.6806 469.875 83.1214 469.634 82.7127 469.213C82.304 468.792 82.0794 468.225 82.0881 467.639C82.0969 467.052 82.3384 466.493 82.7594 466.084L84.4404 464.356C84.7531 464.046 85.1538 463.839 85.5881 463.764C86.0225 463.688 86.4695 463.749 86.8684 463.936C87.2727 464.101 87.6158 464.387 87.8501 464.755C88.0844 465.123 88.1983 465.555 88.1758 465.991L88.3159 466.084Z" fill="#1080EC"/>
<path d="M316.62 594.879C322.434 594.862 328.113 593.121 332.937 589.876C337.761 586.631 341.513 582.027 343.72 576.648C345.926 571.269 346.486 565.356 345.33 559.658C344.174 553.96 341.353 548.733 337.225 544.639C333.097 540.545 327.847 537.768 322.139 536.66C316.432 535.551 310.524 536.161 305.163 538.412C299.803 540.663 295.23 544.454 292.025 549.305C288.821 554.156 287.127 559.849 287.159 565.663C287.202 573.44 290.328 580.884 295.851 586.36C301.373 591.837 308.842 594.9 316.62 594.879V594.879ZM316.375 539.303C321.556 539.271 326.63 540.776 330.956 543.628C335.282 546.479 338.665 550.55 340.677 555.324C342.69 560.098 343.241 565.362 342.262 570.45C341.283 575.537 338.817 580.221 335.177 583.907C331.536 587.593 326.884 590.117 321.809 591.16C316.733 592.202 311.463 591.716 306.664 589.763C301.865 587.811 297.753 584.479 294.848 580.189C291.942 575.899 290.374 570.844 290.342 565.663C290.32 558.722 293.046 552.054 297.923 547.115C302.801 542.176 309.434 539.368 316.375 539.303V539.303Z" fill="#1080EC"/>
<path d="M316.701 600.999C321.363 600.978 325.975 600.039 330.274 598.235C334.573 596.431 338.474 593.798 341.756 590.486C345.037 587.175 347.634 583.249 349.398 578.934C351.162 574.619 352.059 569.998 352.038 565.336H349.263C349.295 571.828 347.401 578.184 343.819 583.599C340.238 589.013 335.13 593.244 329.143 595.754C323.156 598.265 316.559 598.942 310.187 597.702C303.814 596.461 297.953 593.357 293.346 588.784C288.738 584.211 285.591 578.373 284.303 572.01C283.014 565.647 283.643 559.045 286.108 553.04C288.574 547.034 292.766 541.895 298.154 538.273C303.542 534.651 309.883 532.709 316.375 532.693V530C306.96 530.054 297.952 533.846 291.332 540.542C284.713 547.238 281.025 556.289 281.079 565.704C281.133 575.119 284.925 584.127 291.621 590.746C298.317 597.365 307.368 601.054 316.783 600.999H316.701Z" fill="#1080EC"/>
<path d="M287.078 595.449L289.036 593.491C281.667 586.191 277.494 576.266 277.433 565.893C277.372 555.52 281.427 545.547 288.71 538.16L286.833 536.283C279.026 544.165 274.667 554.823 274.713 565.917C274.759 577.01 279.206 587.632 287.078 595.449V595.449Z" fill="#1080EC"/>
<path d="M306.582 572.436C307.404 572.431 308.214 572.63 308.94 573.014C309.666 573.399 310.286 573.957 310.744 574.639L325.433 567.458C325.273 566.957 325.19 566.434 325.189 565.907C325.183 565.354 325.266 564.803 325.433 564.275L311.152 557.338C310.702 558.009 310.095 558.56 309.384 558.944C308.673 559.328 307.879 559.533 307.072 559.542C305.744 559.542 304.469 559.02 303.522 558.089C302.576 557.157 302.033 555.891 302.012 554.564C302.001 553.903 302.122 553.247 302.367 552.634C302.612 552.02 302.977 551.462 303.441 550.991C303.904 550.52 304.456 550.146 305.066 549.89C305.675 549.635 306.329 549.504 306.99 549.504C308.318 549.504 309.593 550.026 310.539 550.957C311.486 551.888 312.028 553.154 312.05 554.482C312.059 555.043 311.948 555.6 311.723 556.114L326.086 563.051C326.537 562.38 327.143 561.829 327.854 561.445C328.565 561.061 329.359 560.856 330.167 560.847C330.879 560.751 331.603 560.807 332.292 561.012C332.98 561.217 333.617 561.566 334.16 562.037C334.703 562.507 335.14 563.088 335.441 563.74C335.742 564.393 335.901 565.102 335.907 565.82C335.913 566.539 335.766 567.25 335.475 567.907C335.185 568.564 334.757 569.152 334.222 569.631C333.687 570.11 333.055 570.47 332.37 570.686C331.685 570.903 330.962 570.97 330.248 570.885C329.427 570.89 328.617 570.691 327.89 570.307C327.164 569.922 326.544 569.364 326.086 568.682L311.315 575.863C311.483 576.363 311.565 576.887 311.56 577.414C311.56 578.734 311.036 580.001 310.102 580.934C309.168 581.868 307.902 582.392 306.582 582.392C305.254 582.392 303.979 581.87 303.033 580.939C302.086 580.008 301.544 578.742 301.522 577.414C301.522 576.753 301.653 576.099 301.909 575.49C302.164 574.881 302.538 574.328 303.009 573.865C303.48 573.401 304.038 573.036 304.652 572.791C305.265 572.546 305.921 572.425 306.582 572.436Z" fill="#1080EC"/>
<path d="M360.884 36.8176C362.215 37.6437 363.778 38.0174 365.338 37.8827H371.729C373.181 37.0112 373.956 37.9795 374.924 38.9478L379.282 43.3051C373.859 50.0831 371.632 57.5389 373.375 66.0599C374.452 72.6517 378.067 78.5601 383.445 82.5207C394.193 90.5575 410.364 89.2019 419.562 79.6159C428.761 70.0298 430.31 54.9246 420.821 43.6924C411.332 32.4603 394.387 29.4586 382.187 40.2066L376.571 34.5905C376.493 34.4072 376.46 34.2081 376.474 34.0095C376.571 32.3635 376.861 30.8142 376.958 29.2649C377.071 28.0066 377.038 26.7395 376.861 25.4886C376.686 24.246 376.427 23.0167 376.086 21.8091C391.385 11.2548 416.173 12.8041 431.666 27.6189C448.902 43.9829 450.16 72.9347 434.474 91.2353C420.628 107.309 392.644 113.022 372.213 97.3355C363.106 90.487 356.892 80.4772 354.795 69.2768C352.699 58.0763 354.871 46.4967 360.884 36.8176V36.8176Z" fill="#1080EC"/>
<path d="M382.186 46.3072L391.095 55.2154C390.232 56.5316 389.687 58.03 389.503 59.5926C389.318 61.1552 389.498 62.7394 390.03 64.2205C390.676 66.4395 392.126 68.3382 394.096 69.5461C396.213 70.855 398.715 71.3962 401.183 71.0789C403.652 70.7615 405.936 69.6049 407.652 67.8032C409.213 65.9919 410.119 63.7082 410.225 61.3195C410.33 58.9308 409.629 56.5761 408.233 54.6344C405.619 51.2454 399.712 48.5342 394.193 52.0201L385.479 43.1118C392.353 36.5275 405.522 35.5592 415.011 43.7896C417.291 45.767 419.153 48.18 420.488 50.8868C421.823 53.5937 422.603 56.54 422.784 59.5526C422.964 62.5652 422.541 65.5836 421.539 68.4304C420.536 71.2772 418.976 73.8951 416.948 76.1304C408.427 85.5228 393.612 86.3943 384.607 77.8733C375.602 69.3524 374.537 54.9249 382.186 46.3072Z" fill="#1080EC"/>
<path d="M360.206 21.2287V17.3555C360.153 16.9114 360.247 16.462 360.474 16.0769C360.702 15.6918 361.05 15.3924 361.465 15.2253C361.902 15.0084 362.399 14.9478 362.875 15.0535C363.351 15.1593 363.776 15.4249 364.079 15.8062C366.597 18.4206 369.211 20.9382 371.826 23.5525C372.126 23.8367 372.36 24.1837 372.51 24.5687C372.661 24.9536 372.725 25.3671 372.697 25.7796V31.3957C372.739 31.686 372.718 31.982 372.634 32.2633C372.551 32.5446 372.408 32.8045 372.215 33.0253C372.022 33.246 371.783 33.4224 371.515 33.5422C371.248 33.6621 370.957 33.7226 370.664 33.7196H364.273C363.684 33.6449 363.137 33.3717 362.724 32.9449L354.687 24.9081C354.352 24.6136 354.123 24.2171 354.036 23.7797C353.948 23.3422 354.007 22.8882 354.203 22.4874C354.352 22.0803 354.633 21.7349 355.002 21.5067C355.371 21.2784 355.805 21.1805 356.236 21.2287H360.206Z" fill="#1080EC"/>
<path d="M397.195 55.3123C398.42 54.6495 399.841 54.4415 401.206 54.725C402.57 55.0085 403.79 55.7653 404.65 56.8615C405.606 58.0548 406.102 59.5512 406.049 61.079C405.996 62.6069 405.396 64.065 404.36 65.1888C403.3 66.275 401.884 66.9418 400.371 67.0663C398.859 67.1909 397.353 66.7648 396.13 65.8666C394.969 65.0138 394.148 63.778 393.812 62.3781C393.475 60.9781 393.644 59.5042 394.29 58.2171L397.679 61.6061C397.912 61.8882 398.171 62.1475 398.453 62.3808C398.868 62.6467 399.361 62.7611 399.85 62.7044C400.339 62.6477 400.793 62.4235 401.135 62.0698C401.478 61.7161 401.687 61.2548 401.728 60.7643C401.768 60.2737 401.638 59.7843 401.358 59.3791L397.195 55.3123Z" fill="#1080EC"/>
<path d="M529.332 489H529.03L527.442 488.357C523.773 486.618 520.899 483.97 518.555 480.68C515.718 476.634 514.054 472.058 513.071 467.255C512.283 463.156 511.928 458.986 512.012 454.813C512.012 454.738 512.05 454.662 512.05 454.586H513.071C514.546 454.435 516.059 454.397 517.533 454.133C521.542 453.452 525.286 451.977 528.879 450.086C528.976 450.03 529.087 450 529.2 450C529.313 450 529.424 450.03 529.522 450.086C530.694 450.653 531.866 451.258 533.039 451.75C537.236 453.527 541.585 454.7 546.199 454.586H546.35C546.35 454.662 546.388 454.7 546.388 454.775C546.465 458.834 546.123 462.889 545.367 466.877C544.535 471.112 543.174 475.197 540.942 478.903C538.711 482.609 535.761 485.748 531.866 487.828C531.043 488.264 530.198 488.655 529.332 489ZM529.181 456.855C527.139 456.855 525.143 457.461 523.445 458.595C521.748 459.73 520.424 461.342 519.643 463.229C518.862 465.115 518.657 467.191 519.055 469.194C519.454 471.196 520.437 473.036 521.881 474.48C523.325 475.924 525.164 476.907 527.167 477.305C529.17 477.704 531.246 477.499 533.132 476.718C535.019 475.936 536.631 474.613 537.765 472.915C538.9 471.217 539.505 469.221 539.505 467.179C539.505 464.441 538.418 461.815 536.481 459.879C534.545 457.943 531.919 456.855 529.181 456.855Z" fill="#1080EC"/>
<path d="M529.181 459.162C531.308 459.162 533.347 460.007 534.85 461.51C536.354 463.014 537.199 465.053 537.199 467.179C537.199 469.305 536.354 471.345 534.85 472.848C533.347 474.352 531.308 475.196 529.181 475.196C527.055 475.196 525.016 474.352 523.512 472.848C522.009 471.345 521.164 469.305 521.164 467.179C521.164 465.053 522.009 463.014 523.512 461.51C525.016 460.007 527.055 459.162 529.181 459.162V459.162ZM523.849 467.973L528.009 472.095L534.476 465.704L532.85 464.078L527.971 469.032L525.437 466.385L523.849 467.973Z" fill="#1080EC"/>
<defs>
<linearGradient id="paint0_linear_176_450" x1="315.501" y1="106.306" x2="315.501" y2="525.454" gradientUnits="userSpaceOnUse">
<stop stop-color="#1080EC"/>
<stop offset="1" stop-color="#99CFFF"/>
</linearGradient>
<linearGradient id="paint1_linear_176_450" x1="315.5" y1="116.177" x2="315.5" y2="514.823" gradientUnits="userSpaceOnUse">
<stop stop-color="#1080EC"/>
<stop offset="1" stop-color="#99CFFF"/>
</linearGradient>
<linearGradient id="paint2_linear_176_450" x1="315.5" y1="126.808" x2="315.5" y2="504.193" gradientUnits="userSpaceOnUse">
<stop stop-color="#1080EC"/>
<stop offset="1" stop-color="#99CFFF"/>
</linearGradient>
<linearGradient id="paint3_linear_176_450" x1="315.5" y1="96.4346" x2="315.5" y2="535.325" gradientUnits="userSpaceOnUse">
<stop stop-color="#1080EC"/>
<stop offset="1" stop-color="#99CFFF"/>
</linearGradient>
<linearGradient id="paint4_linear_176_450" x1="315.5" y1="86.5635" x2="315.5" y2="545.196" gradientUnits="userSpaceOnUse">
<stop stop-color="#1080EC"/>
<stop offset="1" stop-color="#99CFFF"/>
</linearGradient>
<linearGradient id="paint5_linear_176_450" x1="315.12" y1="77.4512" x2="315.12" y2="554.308" gradientUnits="userSpaceOnUse">
<stop stop-color="#1080EC"/>
<stop offset="1" stop-color="#99CFFF"/>
</linearGradient>
<linearGradient id="paint6_linear_176_450" x1="315.5" y1="67.5801" x2="315.5" y2="564.179" gradientUnits="userSpaceOnUse">
<stop stop-color="#1080EC"/>
<stop offset="1" stop-color="#99CFFF"/>
</linearGradient>
<linearGradient id="paint7_linear_176_450" x1="315.5" y1="57.709" x2="315.5" y2="574.051" gradientUnits="userSpaceOnUse">
<stop stop-color="#1080EC"/>
<stop offset="1" stop-color="#99CFFF"/>
</linearGradient>
<linearGradient id="paint8_linear_176_450" x1="315.5" y1="47.8379" x2="315.5" y2="583.922" gradientUnits="userSpaceOnUse">
<stop stop-color="#1080EC"/>
<stop offset="1" stop-color="#99CFFF"/>
</linearGradient>
<linearGradient id="paint9_linear_176_450" x1="315.5" y1="37.9668" x2="315.5" y2="593.794" gradientUnits="userSpaceOnUse">
<stop stop-color="#1080EC"/>
<stop offset="1" stop-color="#99CFFF"/>
</linearGradient>
<linearGradient id="paint10_linear_176_450" x1="315.5" y1="29.6133" x2="315.5" y2="601.386" gradientUnits="userSpaceOnUse">
<stop stop-color="#1080EC"/>
<stop offset="1" stop-color="#99CFFF"/>
</linearGradient>
<linearGradient id="paint11_linear_176_450" x1="315.121" y1="19.7422" x2="315.121" y2="611.257" gradientUnits="userSpaceOnUse">
<stop stop-color="#1080EC"/>
<stop offset="1" stop-color="#99CFFF"/>
</linearGradient>
<linearGradient id="paint12_linear_176_450" x1="315.12" y1="9.87109" x2="315.12" y2="621.129" gradientUnits="userSpaceOnUse">
<stop stop-color="#1080EC"/>
<stop offset="1" stop-color="#99CFFF"/>
</linearGradient>
<linearGradient id="paint13_linear_176_450" x1="315.5" y1="0" x2="315.5" y2="631" gradientUnits="userSpaceOnUse">
<stop stop-color="#1080EC"/>
<stop offset="1" stop-color="#99CFFF"/>
</linearGradient>
</defs>
</svg>
