<svg width="7" height="235" viewBox="0 0 7 235" fill="none" xmlns="http://www.w3.org/2000/svg">
<g style="mix-blend-mode:color-dodge">
<path d="M3.32617 6C4.98303 6 6.32617 4.65685 6.32617 3C6.32617 1.34315 4.98303 0 3.32617 0C1.66932 0 0.326172 1.34315 0.326172 3C0.326172 4.65685 1.66932 6 3.32617 6Z" fill="#BBF2F2"/>
<path d="M3.32666 15.9C2.54847 15.8741 1.81094 15.5466 1.26978 14.9868C0.728616 14.427 0.426326 13.6786 0.426758 12.9C0.426758 12.1309 0.732268 11.3933 1.27612 10.8495C1.81998 10.3056 2.55753 10 3.32666 10C4.09579 10 4.83334 10.3056 5.3772 10.8495C5.92105 11.3933 6.22681 12.1309 6.22681 12.9C6.22724 13.6786 5.92495 14.427 5.38379 14.9868C4.84263 15.5466 4.10485 15.8741 3.32666 15.9V15.9Z" fill="#BBF2F2"/>
<path d="M3.32686 25.7001C2.95083 25.7135 2.5759 25.651 2.22456 25.5164C1.87322 25.3817 1.55262 25.1775 1.28193 24.9161C1.01125 24.6548 0.796047 24.3415 0.649122 23.9951C0.502197 23.6487 0.426714 23.2763 0.426954 22.9C0.348141 22.4811 0.362643 22.05 0.469435 21.6373C0.576227 21.2247 0.772747 20.8405 1.04487 20.5125C1.317 20.1844 1.65809 19.9204 2.0439 19.7391C2.42971 19.5579 2.85054 19.4639 3.27681 19.4639C3.70307 19.4639 4.12415 19.5579 4.50996 19.7391C4.89577 19.9204 5.23686 20.1844 5.50899 20.5125C5.78111 20.8405 5.97763 21.2247 6.08442 21.6373C6.19122 22.05 6.20572 22.4811 6.12691 22.9C6.12691 23.6426 5.83194 24.3549 5.30684 24.88C4.78174 25.4051 4.06946 25.7001 3.32686 25.7001V25.7001Z" fill="#BBF2F2"/>
<path d="M3.32666 35.5998C2.92168 35.6774 2.50467 35.6646 2.10522 35.5622C1.70577 35.4599 1.33369 35.2706 1.01587 35.0079C0.69805 34.7452 0.442241 34.4155 0.266602 34.0425C0.0909617 33.6694 0 33.2622 0 32.8498C0 32.4375 0.0909617 32.0302 0.266602 31.6571C0.442241 31.284 0.69805 30.9544 1.01587 30.6916C1.33369 30.4289 1.70577 30.2396 2.10522 30.1373C2.50467 30.035 2.92168 30.0223 3.32666 30.0998C3.96623 30.2224 4.54311 30.5639 4.95801 31.0658C5.37291 31.5677 5.59985 32.1986 5.59985 32.8498C5.59985 33.501 5.37291 34.1319 4.95801 34.6338C4.54311 35.1357 3.96623 35.4773 3.32666 35.5998Z" fill="#BBF2F2"/>
<path d="M3.32699 45.4995C2.79298 45.4995 2.271 45.3413 1.82699 45.0446C1.38297 44.7479 1.03696 44.3261 0.832601 43.8328C0.628244 43.3394 0.574612 42.7966 0.678792 42.2728C0.782972 41.7491 1.0402 41.268 1.41781 40.8904C1.79541 40.5128 2.27663 40.2557 2.80037 40.1515C3.32412 40.0473 3.86683 40.1007 4.36019 40.3051C4.85355 40.5094 5.27542 40.8556 5.5721 41.2996C5.86878 41.7436 6.02694 42.2656 6.02694 42.7996C6.02694 43.5157 5.74251 44.2024 5.23617 44.7088C4.72982 45.2151 4.04307 45.4995 3.32699 45.4995Z" fill="#BBF2F2"/>
<path d="M3.32655 55.2996C2.98134 55.3137 2.63691 55.256 2.31508 55.1304C1.99325 55.0047 1.70098 54.8138 1.45668 54.5695C1.21238 54.3252 1.02132 54.0328 0.895646 53.7109C0.769976 53.3891 0.712592 53.0448 0.726701 52.6996C0.726701 52.01 1.00058 51.3487 1.48818 50.8611C1.97577 50.3735 2.63699 50.0996 3.32655 50.0996C4.01612 50.0996 4.67758 50.3735 5.16518 50.8611C5.65277 51.3487 5.92665 52.01 5.92665 52.6996C5.92665 53.3891 5.65277 54.0505 5.16518 54.5381C4.67758 55.0257 4.01612 55.2996 3.32655 55.2996V55.2996Z" fill="#BBF2F2"/>
<path d="M3.32617 65.2002C2.66313 65.2002 2.02719 64.9367 1.55835 64.4679C1.08951 63.9991 0.826172 63.3632 0.826172 62.7002C0.826172 62.0372 1.08951 61.4012 1.55835 60.9324C2.02719 60.4635 2.66313 60.2002 3.32617 60.2002C3.98921 60.2002 4.62515 60.4635 5.09399 60.9324C5.56284 61.4012 5.82617 62.0372 5.82617 62.7002C5.82617 63.3632 5.56284 63.9991 5.09399 64.4679C4.62515 64.9367 3.98921 65.2002 3.32617 65.2002Z" fill="#BBF2F2"/>
<path d="M3.32666 75.1004C2.96357 75.1742 2.58867 75.1662 2.229 75.0772C1.86934 74.9883 1.53394 74.8205 1.24707 74.586C0.960202 74.3516 0.729055 74.0563 0.570312 73.7215C0.41157 73.3868 0.329102 73.0209 0.329102 72.6504C0.329102 72.2799 0.41157 71.914 0.570312 71.5792C0.729055 71.2444 0.960202 70.9492 1.24707 70.7147C1.53394 70.4802 1.86934 70.3124 2.229 70.2235C2.58867 70.1345 2.96357 70.1267 3.32666 70.2004C3.8918 70.3152 4.39994 70.6217 4.76489 71.0682C5.12984 71.5147 5.3291 72.0737 5.3291 72.6504C5.3291 73.227 5.12984 73.786 4.76489 74.2325C4.39994 74.679 3.8918 74.9857 3.32666 75.1004Z" fill="#BBF2F2"/>
<path d="M3.32666 85C4.65214 85 5.72656 83.9256 5.72656 82.6001C5.72656 81.2746 4.65214 80.2002 3.32666 80.2002C2.00118 80.2002 0.926758 81.2746 0.926758 82.6001C0.926758 83.9256 2.00118 85 3.32666 85Z" fill="#BBF2F2"/>
<path d="M3.32642 94.8002C2.71642 94.8002 2.13153 94.5578 1.7002 94.1265C1.26886 93.6951 1.02637 93.1101 1.02637 92.5001C1.02637 91.8901 1.26886 91.3051 1.7002 90.8738C2.13153 90.4424 2.71642 90.2002 3.32642 90.2002C3.92853 90.2248 4.49942 90.475 4.92554 90.9011C5.35165 91.3272 5.60186 91.898 5.62646 92.5001C5.62646 93.1101 5.38421 93.6951 4.95288 94.1265C4.52155 94.5578 3.93641 94.8002 3.32642 94.8002Z" fill="#BBF2F2"/>
<path d="M3.32693 104.7C2.89181 104.7 2.46655 104.571 2.10476 104.329C1.74297 104.087 1.46097 103.744 1.29446 103.342C1.12794 102.94 1.08433 102.497 1.16921 102.071C1.2541 101.644 1.46359 101.252 1.77126 100.944C2.07894 100.637 2.47097 100.427 2.89773 100.342C3.32449 100.257 3.76697 100.301 4.16897 100.467C4.57097 100.634 4.91453 100.916 5.15627 101.278C5.39801 101.639 5.52688 102.065 5.52688 102.5C5.52688 103.083 5.29517 103.643 4.88259 104.055C4.47001 104.468 3.9104 104.7 3.32693 104.7V104.7Z" fill="#BBF2F2"/>
<path d="M3.32666 114.6C4.48646 114.6 5.42676 113.66 5.42676 112.5C5.42676 111.34 4.48646 110.4 3.32666 110.4C2.16686 110.4 1.22656 111.34 1.22656 112.5C1.22656 113.66 2.16686 114.6 3.32666 114.6Z" fill="#BBF2F2"/>
<path d="M3.32642 124.4C3.05548 124.413 2.78459 124.372 2.53027 124.277C2.27596 124.183 2.04361 124.038 1.84717 123.851C1.65073 123.664 1.4944 123.438 1.3877 123.189C1.28099 122.94 1.22622 122.671 1.22656 122.4C1.22656 121.843 1.44773 121.309 1.84155 120.915C2.23538 120.521 2.76946 120.3 3.32642 120.3C3.59769 120.299 3.86632 120.354 4.11572 120.461C4.36513 120.568 4.59026 120.724 4.77735 120.921C4.96443 121.117 5.10944 121.349 5.20386 121.604C5.29828 121.858 5.33998 122.129 5.32642 122.4C5.32642 122.93 5.1158 123.439 4.74072 123.814C4.36565 124.189 3.85685 124.4 3.32642 124.4Z" fill="#BBF2F2"/>
<path d="M3.32617 134.3C2.79574 134.3 2.28718 134.089 1.91211 133.714C1.53704 133.339 1.32617 132.83 1.32617 132.3C1.32617 131.769 1.53704 131.261 1.91211 130.886C2.28718 130.511 2.79574 130.3 3.32617 130.3C3.8566 130.3 4.36541 130.511 4.74048 130.886C5.11555 131.261 5.32617 131.769 5.32617 132.3C5.32617 132.83 5.11555 133.339 4.74048 133.714C4.36541 134.089 3.8566 134.3 3.32617 134.3Z" fill="#BBF2F2"/>
<path d="M3.32668 144.2C3.07717 144.2 2.83015 144.151 2.59963 144.056C2.36911 143.96 2.15961 143.82 1.98317 143.644C1.80674 143.468 1.66679 143.258 1.57131 143.027C1.47582 142.797 1.42678 142.55 1.42678 142.3C1.41227 142.047 1.45142 141.794 1.54177 141.557C1.63212 141.319 1.77154 141.104 1.95095 140.925C2.13036 140.745 2.34569 140.606 2.58278 140.516C2.81988 140.425 3.07337 140.386 3.32668 140.4C3.83059 140.4 4.31387 140.601 4.67019 140.957C5.0265 141.313 5.22683 141.797 5.22683 142.3C5.20258 142.797 4.99453 143.266 4.64333 143.617C4.29213 143.968 3.82276 144.176 3.32668 144.2Z" fill="#BBF2F2"/>
<path d="M3.32631 154C2.9703 154 2.62232 153.895 2.32631 153.697C2.0303 153.499 1.7997 153.218 1.66347 152.889C1.52723 152.56 1.49147 152.198 1.56093 151.849C1.63038 151.5 1.80187 151.179 2.0536 150.928C2.30534 150.676 2.62607 150.504 2.97523 150.435C3.3244 150.366 3.68637 150.401 4.01527 150.537C4.34418 150.674 4.6251 150.904 4.82289 151.2C5.02068 151.496 5.12636 151.844 5.12636 152.2C5.12636 152.678 4.93682 153.136 4.59926 153.473C4.26169 153.811 3.8037 154 3.32631 154V154Z" fill="#BBF2F2"/>
<path d="M3.32642 163.9C2.86586 163.901 2.42248 163.725 2.08765 163.409C1.75281 163.093 1.55195 162.66 1.52637 162.2C1.52637 161.723 1.71615 161.265 2.05371 160.928C2.39128 160.59 2.84903 160.4 3.32642 160.4C3.78626 160.426 4.21893 160.627 4.53516 160.962C4.85139 161.297 5.02708 161.74 5.02637 162.2C5.00237 162.644 4.81571 163.062 4.50195 163.376C4.18819 163.69 3.76949 163.876 3.32642 163.9V163.9Z" fill="#BBF2F2"/>
<path d="M3.3269 173.8C2.88383 173.776 2.46537 173.589 2.15161 173.276C1.83785 172.962 1.65095 172.543 1.62695 172.1C1.65249 171.667 1.84285 171.26 2.15894 170.962C2.47502 170.665 2.89284 170.499 3.3269 170.5C3.75125 170.5 4.15819 170.669 4.45825 170.969C4.75831 171.269 4.927 171.676 4.927 172.1C4.92775 172.534 4.76234 172.952 4.46484 173.268C4.16735 173.584 3.76022 173.775 3.3269 173.8Z" fill="#BBF2F2"/>
<path d="M3.32642 183.6C2.91884 183.601 2.52635 183.446 2.229 183.168C1.93166 182.889 1.75204 182.507 1.72656 182.1C1.72656 181.676 1.89501 181.269 2.19507 180.969C2.49513 180.669 2.90207 180.5 3.32642 180.5C3.56271 180.44 3.80976 180.434 4.04858 180.484C4.28741 180.533 4.51167 180.637 4.70435 180.786C4.89703 180.936 5.05313 181.128 5.1604 181.347C5.26767 181.566 5.32324 181.806 5.32324 182.05C5.32324 182.294 5.26767 182.535 5.1604 182.754C5.05313 182.973 4.89703 183.165 4.70435 183.314C4.51167 183.464 4.28741 183.567 4.04858 183.617C3.80976 183.666 3.56271 183.661 3.32642 183.6V183.6Z" fill="#BBF2F2"/>
<path d="M3.32617 193.5C4.1546 193.5 4.82617 192.828 4.82617 192C4.82617 191.172 4.1546 190.5 3.32617 190.5C2.49774 190.5 1.82617 191.172 1.82617 192C1.82617 192.828 2.49774 193.5 3.32617 193.5Z" fill="#BBF2F2"/>
<path d="M3.32666 203.4C3.14281 203.4 2.96087 203.363 2.79102 203.293C2.62116 203.223 2.46667 203.12 2.33667 202.99C2.20667 202.859 2.10356 202.705 2.0332 202.535C1.96285 202.365 1.92676 202.183 1.92676 202C1.92676 201.628 2.07412 201.272 2.33667 201.01C2.59922 200.747 2.95536 200.6 3.32666 200.6C3.69796 200.6 4.0541 200.747 4.31665 201.01C4.5792 201.272 4.72681 201.628 4.72681 202C4.72681 202.371 4.5792 202.727 4.31665 202.99C4.0541 203.252 3.69796 203.4 3.32666 203.4Z" fill="#BBF2F2"/>
<path d="M3.32667 213.3C3.14282 213.3 2.96088 213.263 2.79102 213.193C2.62117 213.123 2.46668 213.019 2.33668 212.889C2.20667 212.759 2.10357 212.605 2.03321 212.435C1.96285 212.265 1.92676 212.083 1.92676 211.899C1.92623 211.72 1.96294 211.542 2.03443 211.378C2.10592 211.213 2.21053 211.065 2.34205 210.943C2.47356 210.821 2.62889 210.727 2.79835 210.668C2.9678 210.609 3.14773 210.586 3.32667 210.6C3.67145 210.6 4.00206 210.737 4.24586 210.98C4.48965 211.224 4.62671 211.555 4.62671 211.899C4.64052 212.078 4.61723 212.258 4.55811 212.428C4.49899 212.597 4.40533 212.753 4.28321 212.884C4.16109 213.016 4.01301 213.12 3.84839 213.192C3.68378 213.263 3.50614 213.3 3.32667 213.3Z" fill="#BBF2F2"/>
<path d="M3.32642 223.1C3.16064 223.113 2.99377 223.093 2.83643 223.039C2.6791 222.985 2.53485 222.898 2.4126 222.786C2.29036 222.673 2.19293 222.536 2.12647 222.383C2.06001 222.231 2.0258 222.066 2.02637 221.9C2.02637 221.555 2.16344 221.224 2.40723 220.98C2.65103 220.737 2.98164 220.6 3.32642 220.6C3.49279 220.599 3.65755 220.633 3.81007 220.699C3.96258 220.766 4.09957 220.863 4.21241 220.986C4.32525 221.108 4.41152 221.252 4.46558 221.41C4.51965 221.567 4.54024 221.734 4.52637 221.9C4.52637 222.218 4.4001 222.523 4.17506 222.748C3.95001 222.973 3.64468 223.1 3.32642 223.1V223.1Z" fill="#BBF2F2"/>
<path d="M3.3269 233C3.00864 233 2.70356 232.873 2.47852 232.648C2.25347 232.423 2.12695 232.118 2.12695 231.8C2.12695 231.481 2.25347 231.176 2.47852 230.951C2.70356 230.726 3.00864 230.6 3.3269 230.6C3.6375 230.623 3.92942 230.756 4.14966 230.977C4.36989 231.197 4.50375 231.489 4.52686 231.8C4.52686 232.118 4.40058 232.423 4.17554 232.648C3.95049 232.873 3.64516 233 3.3269 233V233Z" fill="#BBF2F2"/>
</g>
</svg>
