<svg width="100" height="101" viewBox="0 0 100 101" fill="none" xmlns="http://www.w3.org/2000/svg">
<path d="M50.3356 75.2775L49.7334 62.2071L63.0884 48.915L63.2624 57.2814C63.3322 58.7913 63.0873 60.2992 62.5435 61.7086C61.9997 63.118 61.1689 64.3979 60.1043 65.4663L50.3356 75.2775Z" fill="#99CFFF"/>
<path d="M50.3354 76.8963C50.1364 76.8971 49.9389 76.8607 49.7533 76.7887C49.4619 76.674 49.2098 76.4774 49.027 76.2223C48.8442 75.9672 48.7386 75.6645 48.7229 75.3507L48.1207 62.2803C48.1109 62.0545 48.1481 61.8291 48.2299 61.6185C48.3117 61.4079 48.4363 61.2168 48.5957 61.0573L61.9575 47.7652C62.1816 47.5435 62.4655 47.3926 62.774 47.3309C63.0825 47.2693 63.4022 47.2996 63.6938 47.4182C63.9854 47.5367 64.2361 47.7384 64.415 47.9982C64.5939 48.2581 64.6932 48.5649 64.7007 48.8807L64.8747 57.2269C64.9501 58.9576 64.6667 60.6851 64.0424 62.3C63.4182 63.9148 62.4667 65.3819 61.2482 66.608L51.4728 76.4259C51.3235 76.5758 51.1462 76.6946 50.9509 76.7753C50.7557 76.856 50.5465 76.8972 50.3354 76.8963ZM51.3791 62.8515L51.7739 71.5405L58.9666 64.3165C59.8711 63.4071 60.5768 62.3183 61.0388 61.1196C61.5007 59.9209 61.7088 58.6386 61.6497 57.3546V57.3143L61.556 52.7245L51.3791 62.8515Z" fill="#0088FF"/>
<path d="M50.3353 74.2687L60.104 64.4575C61.1686 63.3891 61.9994 62.1092 62.5432 60.6998C63.087 59.2904 63.3319 57.7825 63.2621 56.2726L63.2487 55.6006L50.0811 68.7045L50.3353 74.2687Z" fill="white"/>
<path d="M40.6797 53.1149L31.627 44.0228C31.627 44.0228 49.0166 26.2686 57.146 18.3861C65.7639 10.0332 81.066 12.5532 81.066 12.5532C81.066 12.5532 83.5751 27.9217 75.2583 36.5703C67.4099 44.7418 49.7325 62.207 49.7325 62.207L40.6797 53.1149Z" fill="#99CFFF"/>
<path d="M49.733 63.826C49.5218 63.8272 49.3125 63.7863 49.1172 63.7055C48.9219 63.6248 48.7446 63.5058 48.5955 63.3556L30.4832 45.1646C30.1837 44.8623 30.0149 44.4535 30.0137 44.0269C30.0124 43.6004 30.1788 43.1906 30.4766 42.8865C30.6505 42.7051 47.9799 25.0248 56.0291 17.2162C58.1635 15.1532 60.8399 13.5404 63.9846 12.4249C66.4535 11.5446 69.2169 10.9734 72.201 10.7247C77.246 10.2946 81.1601 10.9263 81.3274 10.9532C81.6605 11.0089 81.9679 11.1677 82.2066 11.4075C82.4453 11.6472 82.6035 11.956 82.6589 12.2905C82.6856 12.4518 83.3146 16.3897 82.8864 21.4498C82.6388 24.4469 82.0634 27.229 81.1936 29.7087C80.0829 32.867 78.4771 35.555 76.4163 37.6987C68.6415 45.7828 51.0377 63.1876 50.8637 63.3623C50.5619 63.6598 50.1558 63.8263 49.733 63.826ZM33.8956 44.0155L49.7397 59.9284C53.781 55.93 67.504 42.3086 74.1012 35.4475C80.4777 28.8149 79.9825 17.653 79.6212 14.0041C77.2189 13.7686 74.8002 13.7529 72.3951 13.957C68.2065 14.3199 62.3587 15.5833 58.2706 19.5481C51.4391 26.1739 37.8767 39.9566 33.8956 44.0155Z" fill="#0088FF"/>
<path d="M79.5871 12.3711C77.8743 17.7672 74.9704 23.8891 70.0191 28.9829C63.3149 35.891 51.6459 47.577 43.376 55.8224L49.7323 62.2064C49.7323 62.2064 67.4097 44.7412 75.2581 36.5697C83.5749 27.9211 81.0658 12.5525 81.0658 12.5525C81.0658 12.5525 80.5239 12.4585 79.5871 12.3711Z" fill="white"/>
<path d="M18.6064 43.4176L31.6269 44.0223L44.8548 30.6026L36.5314 30.4346C35.0286 30.3645 33.5277 30.6097 32.1245 31.1547C30.7214 31.6996 29.4467 32.5323 28.3818 33.5997L18.6064 43.4176Z" fill="#99CFFF"/>
<path d="M31.627 45.6416H31.5467L18.5329 45.0368C18.2211 45.0201 17.9207 44.9132 17.668 44.7289C17.4153 44.5447 17.221 44.291 17.1086 43.9984C16.9962 43.7058 16.9704 43.3868 17.0343 43.0798C17.0983 42.7728 17.2493 42.4909 17.4691 42.2682L27.2445 32.457C28.4638 31.2331 29.9233 30.2773 31.5301 29.6503C33.137 29.0233 34.8561 28.7387 36.5783 28.8148L44.8884 28.9828C45.2042 28.9891 45.5113 29.0884 45.7714 29.2684C46.0315 29.4485 46.2333 29.7013 46.3516 29.9955C46.4699 30.2897 46.4996 30.6123 46.4369 30.9232C46.3742 31.2342 46.222 31.5199 45.9991 31.7447L32.7712 45.1578C32.6215 45.31 32.4434 45.4312 32.2471 45.5142C32.0508 45.5972 31.8401 45.6405 31.627 45.6416ZM22.3334 41.9658L30.9847 42.369L41.0679 32.1479L36.498 32.0471H36.4512C35.1725 31.9911 33.8962 32.2022 32.703 32.6672C31.5098 33.1322 30.4258 33.841 29.5194 34.7485L22.3334 41.9658Z" fill="#0088FF"/>
<path d="M38.1905 30.6562L25.1299 43.9013L32.162 44.2239L45.3966 30.8108L38.1905 30.6562Z" fill="white"/>
<path d="M67.9254 30.5625C70.5713 30.5625 72.7161 28.4083 72.7161 25.751C72.7161 23.0936 70.5713 20.9395 67.9254 20.9395C65.2796 20.9395 63.1348 23.0936 63.1348 25.751C63.1348 28.4083 65.2796 30.5625 67.9254 30.5625Z" fill="white"/>
<path d="M67.9251 32.1821C66.4417 32.1834 65.0037 31.6679 63.8564 30.7234C62.7091 29.779 61.9235 28.4641 61.6335 27.003C61.3435 25.5418 61.567 24.0249 62.266 22.7108C62.965 21.3967 64.0962 20.3668 65.4668 19.7967C66.8373 19.2265 68.3623 19.1515 69.7817 19.5843C71.2012 20.0171 72.4272 20.931 73.2509 22.1701C74.0745 23.4093 74.4446 24.897 74.2983 26.3796C74.1519 27.8622 73.498 29.2479 72.4482 30.3005C71.8555 30.8989 71.1506 31.3732 70.3742 31.6962C69.5979 32.0192 68.7654 32.1843 67.9251 32.1821ZM67.9251 22.5591C67.4026 22.5594 66.8882 22.689 66.4275 22.9366C65.9667 23.1842 65.5739 23.5421 65.2837 23.9785C64.9935 24.415 64.815 24.9165 64.7638 25.4388C64.7127 25.9611 64.7906 26.488 64.9906 26.9728C65.1906 27.4577 65.5066 27.8855 65.9105 28.2185C66.3144 28.5514 66.7938 28.7792 67.3063 28.8817C67.8188 28.9841 68.3485 28.9581 68.8486 28.8059C69.3486 28.6537 69.8036 28.38 70.1733 28.009C70.6181 27.5626 70.921 26.9937 71.0438 26.3743C71.1666 25.7549 71.1036 25.1128 70.8629 24.5294C70.6223 23.9459 70.2146 23.4472 69.6917 23.0965C69.1687 22.7458 68.5539 22.5588 67.9251 22.5591Z" fill="#0088FF"/>
<path d="M24.2475 59.8143C23.9288 59.8145 23.6172 59.7199 23.352 59.5424C23.0868 59.3649 22.8799 59.1124 22.7575 58.8169C22.6351 58.5214 22.6026 58.1961 22.6641 57.882C22.7257 57.568 22.8785 57.2793 23.1033 57.0524L29.2456 50.8902C29.5472 50.5872 29.9564 50.417 30.383 50.417C30.8097 50.417 31.2188 50.5872 31.5205 50.8902C31.8222 51.1932 31.9916 51.6041 31.9916 52.0326C31.9916 52.4611 31.8222 52.872 31.5205 53.175L25.3849 59.3439C25.2354 59.4936 25.058 59.6121 24.8628 59.6928C24.6676 59.7736 24.4585 59.8148 24.2475 59.8143Z" fill="#0088FF"/>
<path d="M25.3381 70.1441C25.1253 70.1458 24.9143 70.1044 24.7177 70.0224C24.5212 69.9405 24.3431 69.8196 24.194 69.667C24.0443 69.5172 23.9255 69.3391 23.8445 69.1431C23.7634 68.9471 23.7217 68.7369 23.7217 68.5246C23.7217 68.3124 23.7634 68.1022 23.8445 67.9061C23.9255 67.7101 24.0443 67.5321 24.194 67.3822L34.9329 56.5967C35.2396 56.3152 35.6427 56.1636 36.0581 56.1733C36.4734 56.183 36.869 56.3534 37.1624 56.6489C37.4557 56.9444 37.6242 57.3422 37.6326 57.7594C37.6411 58.1766 37.4889 58.5809 37.2078 58.8882L26.4756 69.667C26.3273 69.8188 26.1503 69.9392 25.9549 70.0211C25.7596 70.1031 25.5498 70.1449 25.3381 70.1441Z" fill="#0088FF"/>
<path d="M35.6215 71.2384C35.3028 71.2387 34.9912 71.1441 34.726 70.9665C34.4608 70.789 34.2539 70.5366 34.1315 70.241C34.0091 69.9455 33.9766 69.6202 34.0382 69.3061C34.0997 68.9921 34.2525 68.7034 34.4773 68.4765L40.6129 62.3076C40.9155 62.0037 41.3258 61.833 41.7537 61.833C42.1816 61.833 42.5919 62.0037 42.8945 62.3076C43.1971 62.6115 43.367 63.0236 43.367 63.4534C43.367 63.8831 43.1971 64.2952 42.8945 64.5991L36.7589 70.7613C36.4577 71.0654 36.0486 71.237 35.6215 71.2384Z" fill="#0088FF"/>
<path d="M51.5125 89.5834C64.3314 89.5834 74.7232 88.398 74.7232 86.9358C74.7232 85.4735 64.3314 84.2881 51.5125 84.2881C38.6936 84.2881 28.3018 85.4735 28.3018 86.9358C28.3018 88.398 38.6936 89.5834 51.5125 89.5834Z" fill="#99CFFF"/>
<path d="M50.3354 76.8963C50.1364 76.8971 49.9389 76.8607 49.7533 76.7887C49.4619 76.674 49.2098 76.4774 49.027 76.2223C48.8442 75.9672 48.7386 75.6645 48.7229 75.3507L48.1207 62.2803C48.1109 62.0545 48.1481 61.8291 48.2299 61.6185C48.3117 61.4079 48.4363 61.2168 48.5957 61.0573L61.9575 47.7652C62.1816 47.5435 62.4655 47.3926 62.774 47.3309C63.0825 47.2693 63.4022 47.2996 63.6938 47.4182C63.9854 47.5367 64.2361 47.7384 64.415 47.9982C64.5939 48.2581 64.6932 48.5649 64.7007 48.8807L64.8747 57.2269C64.9501 58.9576 64.6667 60.6851 64.0424 62.3C63.4182 63.9148 62.4667 65.3819 61.2482 66.608L51.4728 76.4259C51.3235 76.5758 51.1462 76.6946 50.9509 76.7753C50.7557 76.856 50.5465 76.8972 50.3354 76.8963ZM51.3791 62.8515L51.7739 71.5405L58.9666 64.3165C59.8711 63.4071 60.5768 62.3183 61.0388 61.1196C61.5007 59.9209 61.7088 58.6386 61.6497 57.3546V57.3143L61.556 52.7245L51.3791 62.8515Z" fill="#0088FF"/>
<path d="M49.733 63.826C49.5218 63.8272 49.3125 63.7863 49.1172 63.7055C48.9219 63.6248 48.7446 63.5058 48.5955 63.3556L30.4832 45.1646C30.1837 44.8623 30.0149 44.4535 30.0137 44.0269C30.0124 43.6004 30.1788 43.1906 30.4766 42.8865C30.6505 42.7051 47.9799 25.0248 56.0291 17.2162C58.1635 15.1532 60.8399 13.5404 63.9846 12.4249C66.4535 11.5446 69.2169 10.9734 72.201 10.7247C77.246 10.2946 81.1601 10.9263 81.3274 10.9532C81.6605 11.0089 81.9679 11.1677 82.2066 11.4075C82.4453 11.6472 82.6035 11.956 82.6589 12.2905C82.6856 12.4518 83.3146 16.3897 82.8864 21.4498C82.6388 24.4469 82.0634 27.229 81.1936 29.7087C80.0829 32.867 78.4771 35.555 76.4163 37.6987C68.6415 45.7828 51.0377 63.1876 50.8637 63.3623C50.5619 63.6598 50.1558 63.8263 49.733 63.826ZM33.8956 44.0155L49.7397 59.9284C53.781 55.93 67.504 42.3086 74.1012 35.4475C80.4777 28.8149 79.9825 17.653 79.6212 14.0041C77.2189 13.7686 74.8002 13.7529 72.3951 13.957C68.2065 14.3199 62.3587 15.5833 58.2706 19.5481C51.4391 26.1739 37.8767 39.9566 33.8956 44.0155Z" fill="#0088FF"/>
<path d="M31.627 45.6416H31.5467L18.5329 45.0368C18.2211 45.0201 17.9207 44.9132 17.668 44.7289C17.4153 44.5447 17.221 44.291 17.1086 43.9984C16.9962 43.7058 16.9704 43.3868 17.0343 43.0798C17.0983 42.7728 17.2493 42.4909 17.4691 42.2682L27.2445 32.457C28.4638 31.2331 29.9233 30.2773 31.5301 29.6503C33.137 29.0233 34.8561 28.7387 36.5783 28.8148L44.8884 28.9828C45.2042 28.9891 45.5113 29.0884 45.7714 29.2684C46.0315 29.4485 46.2333 29.7013 46.3516 29.9955C46.4699 30.2897 46.4996 30.6123 46.4369 30.9232C46.3742 31.2342 46.222 31.5199 45.9991 31.7447L32.7712 45.1578C32.6215 45.31 32.4434 45.4312 32.2471 45.5142C32.0508 45.5972 31.8401 45.6405 31.627 45.6416ZM22.3334 41.9658L30.9847 42.369L41.0679 32.1479L36.498 32.0471H36.4512C35.1725 31.9911 33.8962 32.2022 32.703 32.6672C31.5098 33.1322 30.4258 33.841 29.5194 34.7485L22.3334 41.9658Z" fill="#0088FF"/>
</svg>
