<svg width="82" height="74" viewBox="0 0 82 74" fill="none" xmlns="http://www.w3.org/2000/svg">
<path d="M78.2651 30.2129C78.1112 29.9374 77.9506 29.6753 77.7833 29.4132C77.6161 29.1512 77.5224 28.9563 77.3819 28.7345C77.2414 28.5128 77.0942 28.2305 76.9336 27.9819C76.773 27.7333 76.6459 27.4712 76.4853 27.2293C76.3247 26.9873 76.1976 26.7185 76.0437 26.4766C75.8898 26.2347 75.7493 25.9659 75.5954 25.7173C75.4415 25.4686 75.301 25.2133 75.1471 24.9646C74.9932 24.716 74.8527 24.4606 74.6988 24.212C74.545 23.9634 74.4044 23.7013 74.2505 23.4594C74.0967 23.2174 73.9628 22.9486 73.8023 22.7C73.6417 22.4514 73.5145 22.196 73.354 21.9474C73.1934 21.6987 73.0663 21.4434 72.9057 21.1947C72.7451 20.9461 72.618 20.6907 72.4641 20.4421C72.3102 20.1934 72.1697 19.9314 72.0158 19.6894C71.8619 19.4475 71.7214 19.1787 71.5675 18.9301C71.4136 18.6815 71.2731 18.4261 71.1192 18.1775C70.9653 17.9288 70.8315 17.6735 70.6709 17.4248C70.5103 17.1762 70.3832 16.9141 70.2226 16.6722C70.062 16.4303 69.9349 16.1615 69.7743 15.9195C69.6138 15.6776 69.4866 15.4088 69.3327 15.1602C68.4885 13.6071 67.3304 12.2483 65.9328 11.1709C64.5352 10.0935 62.9288 9.32135 61.2167 8.90389C61.0992 8.6775 60.9697 8.45767 60.8286 8.24534C60.6954 7.97723 60.5433 7.71898 60.3736 7.47254C60.2427 7.20455 60.0929 6.9463 59.9253 6.69974C59.7944 6.43175 59.6446 6.1735 59.477 5.92695C59.3461 5.65896 59.1963 5.4007 59.0287 5.15415C58.397 3.87248 57.3526 2.84282 56.0649 2.23224C54.7773 1.62165 53.322 1.46596 51.9352 1.79044C50.5484 2.11491 49.3114 2.90051 48.425 4.01976C47.5386 5.13902 47.0548 6.52625 47.052 7.95638C47.0536 8.46571 47.1142 8.97313 47.2327 9.46837C47.2666 9.76683 47.318 10.063 47.3866 10.3554C47.4145 10.6525 47.466 10.9469 47.5405 11.2357C47.5689 11.5345 47.6181 11.8309 47.6877 12.1228C47.7216 12.4212 47.7729 12.7174 47.8416 13.0098C47.8693 13.2856 47.914 13.5594 47.9754 13.8296C46.5108 15.87 45.6882 18.3042 45.6135 20.8184C42.6435 20.4063 39.6311 20.4063 36.6611 20.8184C36.5864 18.3042 35.7638 15.87 34.2992 13.8296C34.3606 13.5594 34.4053 13.2856 34.433 13.0098C34.5016 12.7174 34.553 12.4212 34.5869 12.1228C34.6565 11.8309 34.7057 11.5345 34.7341 11.2357C34.8086 10.9469 34.8601 10.6525 34.888 10.3554C34.9566 10.063 35.008 9.76683 35.0419 9.46837C35.1603 8.97313 35.221 8.46571 35.2225 7.95638C35.2198 6.52625 34.7359 5.13902 33.8495 4.01976C32.9631 2.90051 31.7262 2.11491 30.3394 1.79044C28.9526 1.46596 27.4973 1.62165 26.2096 2.23224C24.922 2.84282 23.8776 3.87248 23.2458 5.15415C23.0783 5.4007 22.9284 5.65896 22.7975 5.92695C22.63 6.1735 22.4802 6.43175 22.3492 6.69974C22.1817 6.9463 22.0319 7.20455 21.9009 7.47254C21.7312 7.71898 21.5792 7.97723 21.446 8.24534C21.3049 8.45767 21.1753 8.6775 21.0579 8.90389C19.3458 9.32135 17.7394 10.0935 16.3418 11.1709C14.9441 12.2483 13.7861 13.6071 12.9418 15.1602C12.7879 15.4088 12.6407 15.6575 12.5002 15.9195C12.3597 16.1816 12.1924 16.4101 12.0519 16.6722C11.9114 16.9343 11.7442 17.1695 11.6037 17.4248C11.4631 17.6802 11.2959 17.9221 11.1553 18.1775C11.0148 18.4328 10.8476 18.6747 10.7071 18.9301C10.5666 19.1855 10.3993 19.4274 10.2588 19.6894C10.1183 19.9515 9.951 20.1867 9.81049 20.4421C9.66998 20.6974 9.5094 20.9394 9.3622 21.1947C9.215 21.4501 9.0611 21.692 8.9206 21.9474C8.78009 22.2027 8.61282 22.4446 8.47231 22.7C8.3318 22.9554 8.16453 23.1973 8.02402 23.4594C7.88351 23.7214 7.71623 23.9566 7.57572 24.212C7.43521 24.4674 7.26794 24.7093 7.12743 24.9646C6.98692 25.22 6.81965 25.4619 6.67914 25.7173C6.53863 25.9726 6.37806 26.2145 6.23086 26.4766C6.08366 26.7387 5.92976 26.9739 5.78925 27.2293C5.64874 27.4846 5.48147 27.7265 5.34096 27.9819C5.20045 28.2373 5.03319 28.4792 4.89268 28.7345C4.75217 28.9899 4.61835 29.1848 4.49122 29.4132C4.3641 29.6417 4.16337 29.9374 4.00948 30.2129C2.43672 32.6949 1.60328 35.5768 1.60744 38.5188C1.60744 47.0801 8.51914 54.0151 17.0367 54.0151C24.4769 54.0151 30.6861 48.7332 32.1447 41.6974C32.225 41.4084 32.2919 41.106 32.3588 40.8103C32.4257 40.5146 32.4993 40.2458 32.5596 39.9569C32.6198 39.6679 32.7068 39.3924 32.7603 39.0967C32.8138 38.8011 32.9075 38.5323 32.9677 38.2433C33.0279 37.9543 33.1149 37.6788 33.1684 37.3899C33.2219 37.1009 33.3156 36.8254 33.3758 36.5364C33.4361 36.2475 33.5163 35.9652 33.5766 35.683C33.6368 35.4007 33.7238 35.1118 33.7773 34.8295C33.8308 34.5473 33.9245 34.2583 33.9847 33.9694C34.0449 33.6804 34.1252 33.4049 34.1854 33.116C34.2457 32.827 34.3326 32.5515 34.3929 32.2625C34.4531 31.9736 34.5334 31.698 34.5936 31.4091C34.6404 31.2478 34.6806 31.0798 34.7207 30.9051C38.9547 30.0359 43.3199 30.0359 47.5539 30.9051C47.594 31.0798 47.6342 31.2478 47.681 31.4091C47.7412 31.698 47.8081 31.9803 47.8817 32.2625C47.9553 32.5448 48.0155 32.8404 48.0891 33.116C48.1627 33.3915 48.2163 33.6939 48.2898 33.9694C48.3634 34.2449 48.417 34.5473 48.4973 34.8295C48.5776 35.1118 48.6244 35.4007 48.698 35.683C48.7716 35.9652 48.8251 36.2542 48.8987 36.5364C48.9723 36.8187 49.0259 37.1076 49.1062 37.3899C49.1864 37.6721 49.2333 37.9611 49.3069 38.2433C49.3805 38.5255 49.434 38.8145 49.5143 39.0967C49.5946 39.379 49.6414 39.6747 49.715 39.9569C49.7886 40.2391 49.8421 40.5281 49.9157 40.8103C49.9893 41.0926 50.0496 41.4084 50.1298 41.6974C51.5885 48.7332 57.7976 54.0151 65.2379 54.0151C73.7554 54.0151 80.6671 47.0801 80.6671 38.5188C80.6713 35.5768 79.8378 32.6949 78.2651 30.2129Z" fill="#99CFFF"/>
<path d="M65.238 55.6347C61.3327 55.6342 57.5458 54.2872 54.5108 51.8188C51.4758 49.3504 49.3766 45.9103 48.5643 42.0738C48.484 41.7714 48.4104 41.469 48.3502 41.18C48.29 40.891 48.203 40.5954 48.1494 40.3333C48.0959 40.0712 47.9955 39.7419 47.942 39.4731C47.8885 39.2043 47.7948 38.8818 47.7413 38.613C47.6878 38.3442 47.5874 38.0283 47.5339 37.7595C47.4804 37.4907 47.3867 37.1682 47.3332 36.9061C47.2796 36.644 47.186 36.3215 47.1257 36.0527C47.0655 35.7839 46.9785 35.468 46.925 35.1992C46.8715 34.9304 46.7778 34.6146 46.7243 34.3458C46.6707 34.077 46.5704 33.7612 46.5169 33.4924C46.4633 33.2236 46.3697 32.9077 46.3161 32.6389C46.2827 32.5247 46.2559 32.4104 46.2292 32.3029C42.8587 31.7294 39.4161 31.7294 36.0456 32.3029C36.0188 32.4104 35.9921 32.5247 35.9586 32.6389C35.9051 32.9077 35.8382 33.1832 35.7579 33.4924C35.6776 33.8015 35.6375 34.0367 35.5505 34.3458C35.4635 34.6549 35.43 34.8901 35.3497 35.1992C35.2695 35.5083 35.2293 35.7435 35.149 36.0527C35.0687 36.3618 35.0219 36.597 34.9416 36.9061C34.8613 37.2152 34.8212 37.4504 34.7409 37.7595C34.6606 38.0687 34.6204 38.3039 34.5335 38.613C34.4465 38.9221 34.413 39.164 34.3327 39.4731C34.2524 39.7822 34.2123 40.0174 34.1253 40.3333C34.0383 40.6491 34.0049 40.8776 33.9246 41.18C33.8443 41.4824 33.7908 41.7714 33.7105 42.0738C33.1921 44.521 32.1459 46.8243 30.6454 48.8216C29.145 50.8188 27.2268 52.4613 25.026 53.6335C22.8251 54.8057 20.3952 55.4791 17.9072 55.6062C15.4193 55.7332 12.9338 55.3109 10.626 54.369C8.31809 53.4271 6.2439 51.9884 4.54945 50.1544C2.85501 48.3203 1.58151 46.1354 0.818672 43.7537C0.0558309 41.3719 -0.177815 38.8511 0.134194 36.3688C0.446203 33.8865 1.29627 31.5031 2.62455 29.3864C2.78513 29.1042 2.94572 28.8287 3.1063 28.5733C3.26688 28.318 3.36724 28.1298 3.50106 27.9081C3.63488 27.6863 3.78876 27.4175 3.94935 27.1554C4.10993 26.8933 4.23705 26.6649 4.39763 26.4028C4.55822 26.1407 4.67866 25.9055 4.84594 25.6434C5.01321 25.3813 5.12695 25.1529 5.29422 24.8908C5.4615 24.6287 5.57524 24.4002 5.74251 24.1382C5.90978 23.8761 6.02353 23.6476 6.1908 23.3855C6.35807 23.1234 6.47181 22.895 6.63909 22.6329C6.80636 22.3708 6.91342 22.1423 7.08069 21.8802C7.24796 21.6182 7.36171 21.3897 7.52898 21.1209C7.69625 20.8521 7.80999 20.637 7.97727 20.3682C8.14454 20.0994 8.2583 19.8844 8.42557 19.6156C8.59284 19.3468 8.70658 19.1251 8.87386 18.863C9.01034 18.6045 9.15997 18.3533 9.32214 18.1103C9.44927 17.8684 9.59647 17.6198 9.77043 17.351C9.94439 17.0822 10.0448 16.8671 10.212 16.5983C10.3793 16.3295 10.4931 16.1145 10.6603 15.8457C10.8276 15.5769 10.9413 15.3619 11.1086 15.0931C11.2759 14.8243 11.3896 14.6092 11.5569 14.3404C13.3673 11.0373 16.4013 8.58416 20.0008 7.51294C20.0147 7.48154 20.0327 7.45215 20.0543 7.42557C20.1904 7.16036 20.34 6.90241 20.5026 6.65278C20.6384 6.38605 20.7903 6.12797 20.9576 5.87998C21.0911 5.61337 21.2408 5.35528 21.4059 5.10719C21.5409 4.84139 21.6905 4.58339 21.8542 4.33439C22.7382 2.61151 24.2174 1.27156 26.0147 0.565701C27.8119 -0.140158 29.8038 -0.163467 31.6169 0.500146C33.4301 1.16376 34.94 2.46873 35.8637 4.17046C36.7874 5.87219 37.0614 7.85384 36.6344 9.74396C36.5999 10.0401 36.5485 10.3341 36.4805 10.6243C36.4455 10.9226 36.3941 11.2187 36.3266 11.5113C36.2939 11.8095 36.2447 12.1056 36.1794 12.3984C36.1393 12.694 36.0924 12.9897 36.0255 13.2854C36.0199 13.3463 36.011 13.4069 35.9988 13.4668C37.0862 15.1487 37.8068 17.0427 38.1131 19.0243C40.1252 18.8428 42.1495 18.8428 44.1617 19.0243C44.468 17.0427 45.1886 15.1487 46.276 13.4668C46.2638 13.4069 46.2549 13.3463 46.2492 13.2854C46.1823 12.9897 46.1355 12.694 46.0953 12.3984C46.03 12.1056 45.9809 11.8095 45.9481 11.5113C45.8806 11.2187 45.8293 10.9226 45.7943 10.6243C45.7262 10.3341 45.6748 10.0401 45.6404 9.74396C45.3738 8.5772 45.3726 7.3651 45.6368 6.1978C45.9011 5.03051 46.424 3.93807 47.1666 3.00173C47.9092 2.0654 48.8524 1.30926 49.9261 0.789568C50.9999 0.269874 52.1764 -3.29882e-06 53.3683 7.63409e-06C54.8277 -0.00202499 56.2591 0.401877 57.5039 1.16694C58.7487 1.932 59.7582 3.02833 60.4205 4.33439C60.5842 4.58339 60.7339 4.84139 60.8688 5.10719C61.0339 5.35528 61.1837 5.61337 61.3171 5.87998C61.4844 6.12797 61.6364 6.38605 61.7721 6.65278C61.9347 6.90241 62.0844 7.16036 62.2204 7.42557C62.2421 7.45215 62.2601 7.48154 62.2739 7.51294C65.8734 8.58416 68.9074 11.0373 70.7179 14.3404C70.8851 14.6092 71.0323 14.8511 71.1661 15.0931C71.3 15.335 71.4806 15.6105 71.6144 15.8457C71.7482 16.0809 71.9289 16.3631 72.0627 16.5983C72.1965 16.8335 72.3772 17.1158 72.5043 17.351C72.6314 17.5862 72.8255 17.8684 72.9526 18.1103C73.1148 18.3533 73.2644 18.6045 73.4009 18.863C73.5682 19.1251 73.7154 19.3737 73.8492 19.6156C73.983 19.8575 74.1637 20.1263 74.2975 20.3682C74.4313 20.6102 74.612 20.8857 74.7458 21.1209C74.8796 21.3561 75.0602 21.6383 75.1941 21.8802C75.3279 22.1222 75.5085 22.391 75.6357 22.6329C75.7628 22.8748 75.9501 23.1436 76.084 23.3855C76.2178 23.6274 76.3984 23.8962 76.5322 24.1382C76.6661 24.3801 76.8467 24.6489 76.9805 24.8908C77.1143 25.1327 77.295 25.4015 77.4288 25.6434C77.5626 25.8853 77.7366 26.1541 77.8771 26.4028C78.0176 26.6514 78.1849 26.9068 78.3254 27.1554C78.4659 27.4041 78.6332 27.6661 78.7737 27.9081C78.9142 28.15 79.0413 28.3516 79.1684 28.5733C79.2956 28.7951 79.4896 29.1042 79.6502 29.3864C81.2766 31.9756 82.1817 34.9554 82.2714 38.0153C82.3611 41.0753 81.632 44.1034 80.1601 46.7841C78.6882 49.4648 76.5274 51.6999 73.9028 53.2566C71.2783 54.8133 68.286 55.6345 65.238 55.6347ZM41.1374 28.6338C43.4056 28.6289 45.6681 28.8609 47.8885 29.326C48.1878 29.389 48.4631 29.5361 48.6822 29.7503C48.9014 29.9645 49.0554 30.2368 49.1263 30.5356C49.1598 30.6901 49.1999 30.838 49.2401 30.9858L49.2601 31.0866C49.307 31.3218 49.3672 31.5637 49.4408 31.846C49.4475 31.8796 49.4609 31.9064 49.4675 31.94C49.5077 32.1752 49.5679 32.4172 49.6415 32.6994C49.6526 32.7301 49.6616 32.7615 49.6683 32.7935C49.7151 33.0287 49.7753 33.2706 49.8489 33.5528L49.869 33.6469C49.9158 33.8821 49.9761 34.124 50.0497 34.4063C50.0608 34.437 50.0697 34.4684 50.0764 34.5003C50.1233 34.7288 50.1768 34.9775 50.2571 35.2597L50.2772 35.3538C50.324 35.5823 50.3842 35.8309 50.4578 36.1131L50.4779 36.2072C50.5247 36.4357 50.5849 36.6843 50.6585 36.9666C50.6697 36.9973 50.6786 37.0287 50.6853 37.0607C50.7321 37.2891 50.7923 37.5378 50.8659 37.8267L50.886 37.9208C50.9329 38.1493 50.9931 38.3979 51.0667 38.6802C51.0786 38.7106 51.0876 38.7421 51.0934 38.7742C51.138 39.0027 51.1983 39.2581 51.2741 39.5403L51.2942 39.6344C51.341 39.8629 51.4012 40.1115 51.4748 40.3938C51.4847 40.4221 51.4914 40.4514 51.4949 40.4811C51.5484 40.7365 51.6153 41.0053 51.6889 41.2741L51.709 41.3682C53.0338 47.7589 58.7211 52.3956 65.238 52.3956C72.8522 52.3956 79.0547 46.1729 79.0547 38.5189C79.0588 35.8834 78.3111 33.302 76.9002 31.0799L76.8534 31.006C76.7129 30.7506 76.5724 30.5087 76.4319 30.2869L76.3783 30.2063C76.2713 30.0047 76.1509 29.8031 76.0237 29.6015C76.0057 29.5761 75.99 29.5491 75.9769 29.5208C75.8565 29.3058 75.7226 29.0841 75.5754 28.8489C75.5574 28.8235 75.5417 28.7965 75.5286 28.7682C75.4082 28.5532 75.2744 28.3314 75.1272 28.0962C75.1076 28.0694 75.0919 28.04 75.0803 28.0089C74.9599 27.8005 74.8328 27.5788 74.6789 27.3436L74.632 27.2562C74.5116 27.0412 74.3845 26.8261 74.2306 26.5842L74.1837 26.5036C74.07 26.2885 73.9362 26.0735 73.7823 25.8316L73.7354 25.7509C73.6217 25.5359 73.4879 25.3209 73.3407 25.0789C73.319 25.0524 73.301 25.023 73.2872 24.9916C73.1734 24.7833 73.0396 24.5615 72.8924 24.3263L72.8389 24.239C72.7251 24.0306 72.598 23.8156 72.4441 23.5737L72.3906 23.4863C72.2768 23.278 72.1497 23.0562 71.9958 22.8143L71.9423 22.727C71.8285 22.5254 71.7014 22.3036 71.5475 22.0617L71.494 21.9743C71.3869 21.766 71.2531 21.551 71.0992 21.309L71.0457 21.2217C70.9387 21.0134 70.8048 20.7983 70.6576 20.5564L70.6041 20.469C70.4903 20.2607 70.3632 20.0457 70.2093 19.8038C70.189 19.7739 70.1711 19.7424 70.1558 19.7097C70.0421 19.5081 69.9149 19.293 69.7611 19.0511C69.7407 19.0213 69.7228 18.9898 69.7075 18.9571C69.5938 18.7555 69.4667 18.5404 69.3128 18.2985L69.2592 18.2044C69.1455 18.0028 69.0184 17.7878 68.8645 17.5391C68.8427 17.5102 68.8248 17.4786 68.811 17.4451C68.6972 17.2435 68.5701 17.0284 68.4162 16.7865C68.3961 16.7596 68.3827 16.726 68.3626 16.6924C68.2556 16.4908 68.1218 16.2758 67.9679 16.0339L67.9144 15.9398C67.1792 14.5848 66.1705 13.3989 64.9526 12.4581C63.7348 11.5173 62.3347 10.8423 60.8421 10.4764C60.62 10.4203 60.4119 10.3185 60.2311 10.1774C60.0502 10.0362 59.9006 9.8589 59.7916 9.65661C59.7022 9.48226 59.6016 9.31391 59.4905 9.15261C59.452 9.0951 59.4184 9.03439 59.3902 8.97117C59.2851 8.76777 59.1689 8.57036 59.0422 8.37982C59.0021 8.31933 58.9686 8.25885 58.9352 8.19837C58.8349 7.99372 58.7209 7.79615 58.5939 7.60702C58.5519 7.54818 58.516 7.48512 58.4869 7.41886C58.3798 7.21726 58.2661 7.01566 58.1456 6.83422C58.1038 6.77395 58.0659 6.71111 58.0319 6.64606C57.9324 6.44668 57.8206 6.25367 57.6974 6.06814C57.653 6.0048 57.6149 5.93728 57.5836 5.86654C57.113 4.91192 56.3349 4.14507 55.3757 3.69046C54.4165 3.23585 53.3325 3.12017 52.2996 3.3622C51.2667 3.60423 50.3456 4.18976 49.6858 5.02375C49.0259 5.85773 48.6661 6.89122 48.6646 7.95645C48.6658 8.33669 48.7107 8.71552 48.7985 9.08541C48.8183 9.15801 48.8317 9.23221 48.8386 9.30717C48.8608 9.53135 48.8988 9.75367 48.9524 9.97244C48.9728 10.0426 48.9862 10.1147 48.9925 10.1875C49.0146 10.4139 49.0527 10.6384 49.1062 10.8595C49.1212 10.9305 49.1323 11.0023 49.1397 11.0745C49.1648 11.301 49.205 11.5255 49.2601 11.7465C49.2735 11.8137 49.2869 11.8876 49.2936 11.9548C49.3157 12.1835 49.3538 12.4102 49.4073 12.6336C49.4271 12.6993 49.4406 12.7668 49.4475 12.8352C49.4684 13.0498 49.5019 13.2629 49.5478 13.4735C49.5994 13.6959 49.6028 13.9268 49.5578 14.1505C49.5128 14.3743 49.4204 14.5857 49.2869 14.7705C48.0101 16.5528 47.2925 18.6776 47.2261 20.8722C47.2165 21.0995 47.1604 21.3224 47.0614 21.527C46.9624 21.7316 46.8226 21.9136 46.6507 22.0617C46.4767 22.2073 46.2743 22.3148 46.0565 22.3773C45.8388 22.4398 45.6104 22.4559 45.3861 22.4246C42.5672 22.0303 39.7075 22.0303 36.8887 22.4246C36.6643 22.4559 36.436 22.4398 36.2182 22.3773C36.0004 22.3148 35.7981 22.2073 35.6241 22.0617C35.4521 21.9136 35.3123 21.7316 35.2133 21.527C35.1143 21.3224 35.0583 21.0995 35.0487 20.8722C34.9823 18.6776 34.2647 16.5528 32.9879 14.7705C32.8543 14.5857 32.762 14.3743 32.7169 14.1505C32.6719 13.9268 32.6753 13.6959 32.7269 13.4735C32.7729 13.2629 32.8064 13.0498 32.8273 12.8352C32.8342 12.7668 32.8476 12.6993 32.8674 12.6336C32.921 12.4102 32.959 12.1835 32.9812 11.9548C32.9879 11.8876 33.0012 11.8137 33.0146 11.7465C33.0698 11.5255 33.11 11.301 33.1351 11.0745C33.1424 11.0023 33.1536 10.9305 33.1685 10.8595C33.2221 10.6384 33.2601 10.4139 33.2823 10.1875C33.2886 10.1147 33.302 10.0426 33.3224 9.97244C33.3759 9.75367 33.414 9.53135 33.4361 9.30717C33.443 9.23221 33.4565 9.15801 33.4763 9.08541C33.564 8.71552 33.6089 8.33669 33.6101 7.95645C33.6087 6.89122 33.2489 5.85773 32.589 5.02375C31.9291 4.18976 31.008 3.60423 29.9751 3.3622C28.9422 3.12017 27.8582 3.23585 26.899 3.69046C25.9398 4.14507 25.1618 4.91192 24.6911 5.86654C24.6598 5.93728 24.6217 6.0048 24.5774 6.06814C24.4541 6.25367 24.3424 6.44668 24.2429 6.64606C24.2089 6.71111 24.1709 6.77395 24.1291 6.83422C24.0087 7.01566 23.8949 7.21726 23.7879 7.41886C23.7588 7.48512 23.7229 7.54818 23.6808 7.60702C23.5539 7.79615 23.4399 7.99372 23.3396 8.19837C23.3061 8.25885 23.2727 8.31933 23.2325 8.37982C23.1058 8.57036 22.9897 8.76777 22.8846 8.97117C22.8577 9.03297 22.824 9.09158 22.7842 9.14589C22.6746 9.31044 22.5741 9.48094 22.4831 9.65661C22.3748 9.85941 22.2254 10.0372 22.0444 10.1784C21.8635 10.3196 21.6551 10.4211 21.4327 10.4764C19.9401 10.8423 18.54 11.5173 17.3221 12.4581C16.1043 13.3989 15.0955 14.5848 14.3604 15.9398L14.3069 16.0339C14.153 16.2758 14.0192 16.4908 13.9121 16.6924C13.892 16.726 13.8786 16.7596 13.8586 16.7865C13.7047 17.0284 13.5775 17.2435 13.4638 17.4451C13.45 17.4786 13.432 17.5102 13.4103 17.5391C13.2564 17.7878 13.1293 18.0028 13.0155 18.2044L12.962 18.2985C12.8081 18.5404 12.681 18.7555 12.5672 18.9571C12.5519 18.9898 12.534 19.0213 12.5137 19.0511C12.3598 19.293 12.2327 19.5081 12.1189 19.7097C12.1037 19.7424 12.0857 19.7739 12.0654 19.8038C11.9115 20.0457 11.7844 20.2607 11.6707 20.469L11.6171 20.5564C11.4699 20.7983 11.3361 21.0134 11.229 21.2217L11.1755 21.309C11.0216 21.551 10.8878 21.766 10.7808 21.9743L10.7272 22.0617C10.5733 22.3036 10.4462 22.5254 10.3325 22.727L10.2789 22.8143C10.1251 23.0562 9.99792 23.278 9.88417 23.4863L9.83066 23.5737C9.67677 23.8156 9.54963 24.0306 9.43589 24.239L9.38235 24.3263C9.23516 24.5615 9.10134 24.7833 8.9876 24.9916C8.97374 25.023 8.95573 25.0524 8.93407 25.0789C8.78687 25.3209 8.65306 25.5359 8.53931 25.7509L8.49248 25.8316C8.33859 26.0735 8.20477 26.2885 8.09102 26.5036L8.04417 26.5842C7.89028 26.8261 7.76316 27.0412 7.64272 27.2562L7.59589 27.3436C7.442 27.5788 7.31487 27.8005 7.19443 28.0089C7.18288 28.04 7.16712 28.0694 7.1476 28.0962C7.0004 28.3314 6.86658 28.5532 6.74615 28.7682C6.73305 28.7965 6.71738 28.8235 6.69931 28.8489C6.55211 29.0841 6.4183 29.3058 6.29786 29.5208C6.28476 29.5491 6.26909 29.5761 6.25103 29.6015C6.1239 29.8031 6.00346 30.0047 5.89641 30.2063L5.84288 30.2869C5.70237 30.5087 5.56185 30.7506 5.42134 31.006L5.37451 31.0799C3.96364 33.302 3.216 35.8834 3.22005 38.5189C3.22005 46.1729 9.42251 52.3956 17.0368 52.3956C23.5537 52.3956 29.241 47.7589 30.5658 41.3682L30.5858 41.2741C30.6594 41.0053 30.7263 40.7365 30.7799 40.4811C30.7833 40.4514 30.7901 40.4221 30.7999 40.3938C30.8735 40.1115 30.9338 39.8629 30.9806 39.6344L31.0007 39.5403C31.072 39.2581 31.1322 39.0027 31.1813 38.7742C31.1871 38.7421 31.1961 38.7106 31.2081 38.6802C31.2817 38.3979 31.3419 38.1493 31.3887 37.9208L31.4088 37.8267C31.4824 37.5378 31.5426 37.2891 31.5895 37.0607C31.5962 37.0287 31.6051 36.9973 31.6162 36.9666C31.6898 36.6843 31.75 36.4357 31.7969 36.2072L31.8169 36.1131C31.8905 35.8309 31.9508 35.5823 31.9976 35.3538L32.0177 35.2597C32.098 34.9775 32.1515 34.7288 32.1983 34.5003C32.205 34.4684 32.214 34.437 32.2251 34.4063C32.2987 34.124 32.3589 33.8821 32.4058 33.6469L32.4258 33.5528C32.4994 33.2706 32.5596 33.0287 32.6065 32.7935C32.6132 32.7615 32.6221 32.7301 32.6332 32.6994C32.7068 32.4172 32.7671 32.1752 32.8072 31.94C32.8139 31.9064 32.8273 31.8796 32.834 31.846C32.9076 31.5637 32.9678 31.3218 33.0146 31.0866L33.0347 30.9858C33.0748 30.838 33.115 30.6901 33.1484 30.5356C33.2193 30.2368 33.3734 29.9645 33.5925 29.7503C33.8117 29.5361 34.087 29.389 34.3863 29.326C36.6067 28.8609 38.8692 28.6289 41.1374 28.6338Z" fill="#0088FF"/>
<path d="M72.2732 45.5806C76.1561 41.6809 76.1561 35.3582 72.2732 31.4584C68.3904 27.5587 62.095 27.5587 58.2122 31.4585C54.3293 35.3582 54.3293 41.6809 58.2122 45.5806C62.095 49.4803 68.3904 49.4803 72.2732 45.5806Z" fill="white"/>
<path d="M65.2378 50.1239C58.8614 50.1239 53.6826 44.9159 53.6826 38.5185C53.6826 32.1211 58.8614 26.9131 65.2378 26.9131C71.6142 26.9131 76.7863 32.1211 76.7863 38.5185C76.7863 44.9159 71.6075 50.1239 65.2378 50.1239ZM65.2378 30.1521C63.0285 30.1521 60.9097 31.0336 59.3475 32.6026C57.7853 34.1716 56.9076 36.2996 56.9076 38.5185C56.9076 40.7374 57.7853 42.8654 59.3475 44.4344C60.9097 46.0034 63.0285 46.8848 65.2378 46.8848C69.8278 46.8848 73.5613 43.1284 73.5613 38.5185C73.5613 33.9086 69.8278 30.1521 65.2378 30.1521Z" fill="#0088FF"/>
<path d="M24.0721 45.5874C27.9549 41.6877 27.9549 35.365 24.0721 31.4653C20.1892 27.5656 13.8939 27.5656 10.011 31.4653C6.12815 35.365 6.12815 41.6877 10.011 45.5874C13.8939 49.4872 20.1892 49.4872 24.0721 45.5874Z" fill="white"/>
<path d="M17.0368 50.1239C10.667 50.1239 5.48828 44.9159 5.48828 38.5185C5.48828 32.1211 10.667 26.9131 17.0368 26.9131C23.4065 26.9131 28.592 32.1211 28.592 38.5185C28.592 44.9159 23.4132 50.1239 17.0368 50.1239ZM17.0368 30.1521C12.4468 30.1521 8.71329 33.9086 8.71329 38.5185C8.71329 43.1284 12.4468 46.8848 17.0368 46.8848C19.2461 46.8848 21.3649 46.0034 22.9271 44.4344C24.4893 42.8654 25.367 40.7374 25.367 38.5185C25.367 36.2996 24.4893 34.1716 22.9271 32.6026C21.3649 31.0336 19.2461 30.1521 17.0368 30.1521Z" fill="#0088FF"/>
<path d="M78.2645 30.2128C78.1106 29.9372 77.95 29.6752 77.7828 29.4131C77.6155 29.151 77.5218 28.9561 77.3813 28.7344C77.2408 28.5126 77.0936 28.2304 76.933 27.9817C76.7724 27.7331 76.6453 27.471 76.4847 27.2291C76.3241 26.9872 76.197 26.7184 76.0431 26.4765C75.8892 26.2345 75.7487 25.9657 75.5948 25.7171C75.4409 25.4685 75.3004 25.2131 75.1465 24.9645C74.9927 24.7158 74.8521 24.4605 74.6983 24.2118C74.5444 23.9632 74.4038 23.7011 74.25 23.4592C74.0961 23.2173 73.9622 22.9485 73.8017 22.6998C73.6411 22.4512 73.514 22.1958 73.3534 21.9472C73.1928 21.6986 73.0657 21.4432 72.9051 21.1946C72.7445 20.9459 72.6174 20.6906 72.4635 20.4419C72.3096 20.1933 72.1691 19.9312 72.0152 19.6893C71.8613 19.4474 71.7208 19.1786 71.5669 18.9299C71.413 18.6813 71.2725 18.4259 71.1186 18.1773C70.9647 17.9286 70.8309 17.6733 70.6703 17.4247C70.5097 17.176 70.3826 16.9139 70.222 16.672C70.0615 16.4301 69.9343 16.1613 69.7737 15.9194C69.6132 15.6775 69.486 15.4087 69.3321 15.16C68.4879 13.6069 67.3299 12.2481 65.9322 11.1707C64.5346 10.0934 62.9282 9.32118 61.2161 8.90373C61.0987 8.67734 60.9691 8.4575 60.828 8.24517C60.6948 7.97706 60.5428 7.71881 60.373 7.47238C60.2421 7.20439 60.0923 6.94613 59.9247 6.69958C59.7938 6.43159 59.644 6.17334 59.4765 5.92678C59.3455 5.65879 59.1957 5.40054 59.0282 5.15399C58.5315 4.14393 57.7761 3.28492 56.8394 2.66523C55.9027 2.04554 54.8187 1.68754 53.6986 1.62801C52.5786 1.56848 51.4629 1.80957 50.4664 2.32651C49.4698 2.84345 48.6283 3.61758 48.0283 4.56935L57.9242 31.7516C59.2791 30.2721 61.0473 29.238 62.9973 28.7848C64.9473 28.3316 66.9881 28.4804 68.8524 29.2118C70.7168 29.9432 72.3177 31.2231 73.4456 32.8837C74.5734 34.5444 75.1756 36.5084 75.1733 38.5187H80.6665C80.6707 35.5766 79.8373 32.6948 78.2645 30.2128Z" fill="white"/>
<path d="M34.5868 12.1228C34.6564 11.8309 34.7056 11.5345 34.734 11.2357C34.8085 10.9469 34.8599 10.6525 34.8878 10.3554C34.9565 10.063 35.0078 9.76683 35.0417 9.46837C35.1602 8.97312 35.2208 8.46571 35.2224 7.95637C35.2224 4.45527 33.6634 1.74712 30.1774 1.74712C29.6556 1.74712 30.1373 1.62616 29.6556 1.74712L18.0134 28.58C18.6691 28.4456 16.3474 28.5329 17.0365 28.5329C19.4331 28.5319 21.7494 29.4003 23.5591 30.9783C25.3688 32.5564 26.5501 34.7378 26.8855 37.1211L35.1086 15.1131C34.8633 14.6702 34.593 14.2417 34.299 13.8296C34.3604 13.5594 34.4051 13.2856 34.4329 13.0098C34.5015 12.7174 34.5529 12.4212 34.5868 12.1228Z" fill="white"/>
<path d="M65.238 55.6347C61.3327 55.6342 57.5458 54.2872 54.5108 51.8188C51.4758 49.3504 49.3766 45.9103 48.5643 42.0738C48.484 41.7714 48.4104 41.469 48.3502 41.18C48.29 40.891 48.203 40.5954 48.1494 40.3333C48.0959 40.0712 47.9955 39.7419 47.942 39.4731C47.8885 39.2043 47.7948 38.8818 47.7413 38.613C47.6878 38.3442 47.5874 38.0283 47.5339 37.7595C47.4804 37.4907 47.3867 37.1682 47.3332 36.9061C47.2796 36.644 47.186 36.3215 47.1257 36.0527C47.0655 35.7839 46.9785 35.468 46.925 35.1992C46.8715 34.9304 46.7778 34.6146 46.7243 34.3458C46.6707 34.077 46.5704 33.7612 46.5169 33.4924C46.4633 33.2236 46.3697 32.9077 46.3161 32.6389C46.2827 32.5247 46.2559 32.4104 46.2292 32.3029C42.8587 31.7294 39.4161 31.7294 36.0456 32.3029C36.0188 32.4104 35.9921 32.5247 35.9586 32.6389C35.9051 32.9077 35.8382 33.1832 35.7579 33.4924C35.6776 33.8015 35.6375 34.0367 35.5505 34.3458C35.4635 34.6549 35.43 34.8901 35.3497 35.1992C35.2695 35.5083 35.2293 35.7435 35.149 36.0527C35.0687 36.3618 35.0219 36.597 34.9416 36.9061C34.8613 37.2152 34.8212 37.4504 34.7409 37.7595C34.6606 38.0687 34.6204 38.3039 34.5335 38.613C34.4465 38.9221 34.413 39.164 34.3327 39.4731C34.2524 39.7822 34.2123 40.0174 34.1253 40.3333C34.0383 40.6491 34.0049 40.8776 33.9246 41.18C33.8443 41.4824 33.7908 41.7714 33.7105 42.0738C33.1921 44.521 32.1459 46.8243 30.6454 48.8216C29.145 50.8188 27.2268 52.4613 25.026 53.6335C22.8251 54.8057 20.3952 55.4791 17.9072 55.6062C15.4193 55.7332 12.9338 55.3109 10.626 54.369C8.31809 53.4271 6.2439 51.9884 4.54945 50.1544C2.85501 48.3203 1.58151 46.1354 0.818672 43.7537C0.0558309 41.3719 -0.177815 38.8511 0.134194 36.3688C0.446203 33.8865 1.29627 31.5031 2.62455 29.3864C2.78513 29.1042 2.94572 28.8287 3.1063 28.5733C3.26688 28.318 3.36724 28.1298 3.50106 27.9081C3.63488 27.6863 3.78876 27.4175 3.94935 27.1554C4.10993 26.8933 4.23705 26.6649 4.39763 26.4028C4.55822 26.1407 4.67866 25.9055 4.84594 25.6434C5.01321 25.3813 5.12695 25.1529 5.29422 24.8908C5.4615 24.6287 5.57524 24.4002 5.74251 24.1382C5.90978 23.8761 6.02353 23.6476 6.1908 23.3855C6.35807 23.1234 6.47181 22.895 6.63909 22.6329C6.80636 22.3708 6.91342 22.1423 7.08069 21.8802C7.24796 21.6182 7.36171 21.3897 7.52898 21.1209C7.69625 20.8521 7.80999 20.637 7.97727 20.3682C8.14454 20.0994 8.2583 19.8844 8.42557 19.6156C8.59284 19.3468 8.70658 19.1251 8.87386 18.863C9.01034 18.6045 9.15997 18.3533 9.32214 18.1103C9.44927 17.8684 9.59647 17.6198 9.77043 17.351C9.94439 17.0822 10.0448 16.8671 10.212 16.5983C10.3793 16.3295 10.4931 16.1145 10.6603 15.8457C10.8276 15.5769 10.9413 15.3619 11.1086 15.0931C11.2759 14.8243 11.3896 14.6092 11.5569 14.3404C13.3673 11.0373 16.4013 8.58416 20.0008 7.51294C20.0147 7.48154 20.0327 7.45215 20.0543 7.42557C20.1904 7.16036 20.34 6.90241 20.5026 6.65278C20.6384 6.38605 20.7903 6.12797 20.9576 5.87998C21.0911 5.61337 21.2408 5.35528 21.4059 5.10719C21.5409 4.84139 21.6905 4.58339 21.8542 4.33439C22.7382 2.61151 24.2174 1.27156 26.0147 0.565701C27.8119 -0.140158 29.8038 -0.163467 31.6169 0.500146C33.4301 1.16376 34.94 2.46873 35.8637 4.17046C36.7874 5.87219 37.0614 7.85384 36.6344 9.74396C36.5999 10.0401 36.5485 10.3341 36.4805 10.6243C36.4455 10.9226 36.3941 11.2187 36.3266 11.5113C36.2939 11.8095 36.2447 12.1056 36.1794 12.3984C36.1393 12.694 36.0924 12.9897 36.0255 13.2854C36.0199 13.3463 36.011 13.4069 35.9988 13.4668C37.0862 15.1487 37.8068 17.0427 38.1131 19.0243C40.1252 18.8428 42.1495 18.8428 44.1617 19.0243C44.468 17.0427 45.1886 15.1487 46.276 13.4668C46.2638 13.4069 46.2549 13.3463 46.2492 13.2854C46.1823 12.9897 46.1355 12.694 46.0953 12.3984C46.03 12.1056 45.9809 11.8095 45.9481 11.5113C45.8806 11.2187 45.8293 10.9226 45.7943 10.6243C45.7262 10.3341 45.6748 10.0401 45.6404 9.74396C45.3738 8.5772 45.3726 7.3651 45.6368 6.1978C45.9011 5.03051 46.424 3.93807 47.1666 3.00173C47.9092 2.0654 48.8524 1.30926 49.9261 0.789568C50.9999 0.269874 52.1764 -3.29882e-06 53.3683 7.63409e-06C54.8277 -0.00202499 56.2591 0.401877 57.5039 1.16694C58.7487 1.932 59.7582 3.02833 60.4205 4.33439C60.5842 4.58339 60.7339 4.84139 60.8688 5.10719C61.0339 5.35528 61.1837 5.61337 61.3171 5.87998C61.4844 6.12797 61.6364 6.38605 61.7721 6.65278C61.9347 6.90241 62.0844 7.16036 62.2204 7.42557C62.2421 7.45215 62.2601 7.48154 62.2739 7.51294C65.8734 8.58416 68.9074 11.0373 70.7179 14.3404C70.8851 14.6092 71.0323 14.8511 71.1661 15.0931C71.3 15.335 71.4806 15.6105 71.6144 15.8457C71.7482 16.0809 71.9289 16.3631 72.0627 16.5983C72.1965 16.8335 72.3772 17.1158 72.5043 17.351C72.6314 17.5862 72.8255 17.8684 72.9526 18.1103C73.1148 18.3533 73.2644 18.6045 73.4009 18.863C73.5682 19.1251 73.7154 19.3737 73.8492 19.6156C73.983 19.8575 74.1637 20.1263 74.2975 20.3682C74.4313 20.6102 74.612 20.8857 74.7458 21.1209C74.8796 21.3561 75.0602 21.6383 75.1941 21.8802C75.3279 22.1222 75.5085 22.391 75.6357 22.6329C75.7628 22.8748 75.9501 23.1436 76.084 23.3855C76.2178 23.6274 76.3984 23.8962 76.5322 24.1382C76.6661 24.3801 76.8467 24.6489 76.9805 24.8908C77.1143 25.1327 77.295 25.4015 77.4288 25.6434C77.5626 25.8853 77.7366 26.1541 77.8771 26.4028C78.0176 26.6514 78.1849 26.9068 78.3254 27.1554C78.4659 27.4041 78.6332 27.6661 78.7737 27.9081C78.9142 28.15 79.0413 28.3516 79.1684 28.5733C79.2956 28.7951 79.4896 29.1042 79.6502 29.3864C81.2766 31.9756 82.1817 34.9554 82.2714 38.0153C82.3611 41.0753 81.632 44.1034 80.1601 46.7841C78.6882 49.4648 76.5274 51.6999 73.9028 53.2566C71.2783 54.8133 68.286 55.6345 65.238 55.6347ZM41.1374 28.6338C43.4056 28.6289 45.6681 28.8609 47.8885 29.326C48.1878 29.389 48.4631 29.5361 48.6822 29.7503C48.9014 29.9645 49.0554 30.2368 49.1263 30.5356C49.1598 30.6901 49.1999 30.838 49.2401 30.9858L49.2601 31.0866C49.307 31.3218 49.3672 31.5637 49.4408 31.846C49.4475 31.8796 49.4609 31.9064 49.4675 31.94C49.5077 32.1752 49.5679 32.4172 49.6415 32.6994C49.6526 32.7301 49.6616 32.7615 49.6683 32.7935C49.7151 33.0287 49.7753 33.2706 49.8489 33.5528L49.869 33.6469C49.9158 33.8821 49.9761 34.124 50.0497 34.4063C50.0608 34.437 50.0697 34.4684 50.0764 34.5003C50.1233 34.7288 50.1768 34.9775 50.2571 35.2597L50.2772 35.3538C50.324 35.5823 50.3842 35.8309 50.4578 36.1131L50.4779 36.2072C50.5247 36.4357 50.5849 36.6843 50.6585 36.9666C50.6697 36.9973 50.6786 37.0287 50.6853 37.0607C50.7321 37.2891 50.7923 37.5378 50.8659 37.8267L50.886 37.9208C50.9329 38.1493 50.9931 38.3979 51.0667 38.6802C51.0786 38.7106 51.0876 38.7421 51.0934 38.7742C51.138 39.0027 51.1983 39.2581 51.2741 39.5403L51.2942 39.6344C51.341 39.8629 51.4012 40.1115 51.4748 40.3938C51.4847 40.4221 51.4914 40.4514 51.4949 40.4811C51.5484 40.7365 51.6153 41.0053 51.6889 41.2741L51.709 41.3682C53.0338 47.7589 58.7211 52.3956 65.238 52.3956C72.8522 52.3956 79.0547 46.1729 79.0547 38.5189C79.0588 35.8834 78.3111 33.302 76.9002 31.0799L76.8534 31.006C76.7129 30.7506 76.5724 30.5087 76.4319 30.2869L76.3783 30.2063C76.2713 30.0047 76.1509 29.8031 76.0237 29.6015C76.0057 29.5761 75.99 29.5491 75.9769 29.5208C75.8565 29.3058 75.7226 29.0841 75.5754 28.8489C75.5574 28.8235 75.5417 28.7965 75.5286 28.7682C75.4082 28.5532 75.2744 28.3314 75.1272 28.0962C75.1076 28.0694 75.0919 28.04 75.0803 28.0089C74.9599 27.8005 74.8328 27.5788 74.6789 27.3436L74.632 27.2562C74.5116 27.0412 74.3845 26.8261 74.2306 26.5842L74.1837 26.5036C74.07 26.2885 73.9362 26.0735 73.7823 25.8316L73.7354 25.7509C73.6217 25.5359 73.4879 25.3209 73.3407 25.0789C73.319 25.0524 73.301 25.023 73.2872 24.9916C73.1734 24.7833 73.0396 24.5615 72.8924 24.3263L72.8389 24.239C72.7251 24.0306 72.598 23.8156 72.4441 23.5737L72.3906 23.4863C72.2768 23.278 72.1497 23.0562 71.9958 22.8143L71.9423 22.727C71.8285 22.5254 71.7014 22.3036 71.5475 22.0617L71.494 21.9743C71.3869 21.766 71.2531 21.551 71.0992 21.309L71.0457 21.2217C70.9387 21.0134 70.8048 20.7983 70.6576 20.5564L70.6041 20.469C70.4903 20.2607 70.3632 20.0457 70.2093 19.8038C70.189 19.7739 70.1711 19.7424 70.1558 19.7097C70.0421 19.5081 69.9149 19.293 69.7611 19.0511C69.7407 19.0213 69.7228 18.9898 69.7075 18.9571C69.5938 18.7555 69.4667 18.5404 69.3128 18.2985L69.2592 18.2044C69.1455 18.0028 69.0184 17.7878 68.8645 17.5391C68.8427 17.5102 68.8248 17.4786 68.811 17.4451C68.6972 17.2435 68.5701 17.0284 68.4162 16.7865C68.3961 16.7596 68.3827 16.726 68.3626 16.6924C68.2556 16.4908 68.1218 16.2758 67.9679 16.0339L67.9144 15.9398C67.1792 14.5848 66.1705 13.3989 64.9526 12.4581C63.7348 11.5173 62.3347 10.8423 60.8421 10.4764C60.62 10.4203 60.4119 10.3185 60.2311 10.1774C60.0502 10.0362 59.9006 9.8589 59.7916 9.65661C59.7022 9.48226 59.6016 9.31391 59.4905 9.15261C59.452 9.0951 59.4184 9.03439 59.3902 8.97117C59.2851 8.76777 59.1689 8.57036 59.0422 8.37982C59.0021 8.31933 58.9686 8.25885 58.9352 8.19837C58.8349 7.99372 58.7209 7.79615 58.5939 7.60702C58.5519 7.54818 58.516 7.48512 58.4869 7.41886C58.3798 7.21726 58.2661 7.01566 58.1456 6.83422C58.1038 6.77395 58.0659 6.71111 58.0319 6.64606C57.9324 6.44668 57.8206 6.25367 57.6974 6.06814C57.653 6.0048 57.6149 5.93728 57.5836 5.86654C57.113 4.91192 56.3349 4.14507 55.3757 3.69046C54.4165 3.23585 53.3325 3.12017 52.2996 3.3622C51.2667 3.60423 50.3456 4.18976 49.6858 5.02375C49.0259 5.85773 48.6661 6.89122 48.6646 7.95645C48.6658 8.33669 48.7107 8.71552 48.7985 9.08541C48.8183 9.15801 48.8317 9.23221 48.8386 9.30717C48.8608 9.53135 48.8988 9.75367 48.9524 9.97244C48.9728 10.0426 48.9862 10.1147 48.9925 10.1875C49.0146 10.4139 49.0527 10.6384 49.1062 10.8595C49.1212 10.9305 49.1323 11.0023 49.1397 11.0745C49.1648 11.301 49.205 11.5255 49.2601 11.7465C49.2735 11.8137 49.2869 11.8876 49.2936 11.9548C49.3157 12.1835 49.3538 12.4102 49.4073 12.6336C49.4271 12.6993 49.4406 12.7668 49.4475 12.8352C49.4684 13.0498 49.5019 13.2629 49.5478 13.4735C49.5994 13.6959 49.6028 13.9268 49.5578 14.1505C49.5128 14.3743 49.4204 14.5857 49.2869 14.7705C48.0101 16.5528 47.2925 18.6776 47.2261 20.8722C47.2165 21.0995 47.1604 21.3224 47.0614 21.527C46.9624 21.7316 46.8226 21.9136 46.6507 22.0617C46.4767 22.2073 46.2743 22.3148 46.0565 22.3773C45.8388 22.4398 45.6104 22.4559 45.3861 22.4246C42.5672 22.0303 39.7075 22.0303 36.8887 22.4246C36.6643 22.4559 36.436 22.4398 36.2182 22.3773C36.0004 22.3148 35.7981 22.2073 35.6241 22.0617C35.4521 21.9136 35.3123 21.7316 35.2133 21.527C35.1143 21.3224 35.0583 21.0995 35.0487 20.8722C34.9823 18.6776 34.2647 16.5528 32.9879 14.7705C32.8543 14.5857 32.762 14.3743 32.7169 14.1505C32.6719 13.9268 32.6753 13.6959 32.7269 13.4735C32.7729 13.2629 32.8064 13.0498 32.8273 12.8352C32.8342 12.7668 32.8476 12.6993 32.8674 12.6336C32.921 12.4102 32.959 12.1835 32.9812 11.9548C32.9879 11.8876 33.0012 11.8137 33.0146 11.7465C33.0698 11.5255 33.11 11.301 33.1351 11.0745C33.1424 11.0023 33.1536 10.9305 33.1685 10.8595C33.2221 10.6384 33.2601 10.4139 33.2823 10.1875C33.2886 10.1147 33.302 10.0426 33.3224 9.97244C33.3759 9.75367 33.414 9.53135 33.4361 9.30717C33.443 9.23221 33.4565 9.15801 33.4763 9.08541C33.564 8.71552 33.6089 8.33669 33.6101 7.95645C33.6087 6.89122 33.2489 5.85773 32.589 5.02375C31.9291 4.18976 31.008 3.60423 29.9751 3.3622C28.9422 3.12017 27.8582 3.23585 26.899 3.69046C25.9398 4.14507 25.1618 4.91192 24.6911 5.86654C24.6598 5.93728 24.6217 6.0048 24.5774 6.06814C24.4541 6.25367 24.3424 6.44668 24.2429 6.64606C24.2089 6.71111 24.1709 6.77395 24.1291 6.83422C24.0087 7.01566 23.8949 7.21726 23.7879 7.41886C23.7588 7.48512 23.7229 7.54818 23.6808 7.60702C23.5539 7.79615 23.4399 7.99372 23.3396 8.19837C23.3061 8.25885 23.2727 8.31933 23.2325 8.37982C23.1058 8.57036 22.9897 8.76777 22.8846 8.97117C22.8577 9.03297 22.824 9.09158 22.7842 9.14589C22.6746 9.31044 22.5741 9.48094 22.4831 9.65661C22.3748 9.85941 22.2254 10.0372 22.0444 10.1784C21.8635 10.3196 21.6551 10.4211 21.4327 10.4764C19.9401 10.8423 18.54 11.5173 17.3221 12.4581C16.1043 13.3989 15.0955 14.5848 14.3604 15.9398L14.3069 16.0339C14.153 16.2758 14.0192 16.4908 13.9121 16.6924C13.892 16.726 13.8786 16.7596 13.8586 16.7865C13.7047 17.0284 13.5775 17.2435 13.4638 17.4451C13.45 17.4786 13.432 17.5102 13.4103 17.5391C13.2564 17.7878 13.1293 18.0028 13.0155 18.2044L12.962 18.2985C12.8081 18.5404 12.681 18.7555 12.5672 18.9571C12.5519 18.9898 12.534 19.0213 12.5137 19.0511C12.3598 19.293 12.2327 19.5081 12.1189 19.7097C12.1037 19.7424 12.0857 19.7739 12.0654 19.8038C11.9115 20.0457 11.7844 20.2607 11.6707 20.469L11.6171 20.5564C11.4699 20.7983 11.3361 21.0134 11.229 21.2217L11.1755 21.309C11.0216 21.551 10.8878 21.766 10.7808 21.9743L10.7272 22.0617C10.5733 22.3036 10.4462 22.5254 10.3325 22.727L10.2789 22.8143C10.1251 23.0562 9.99792 23.278 9.88417 23.4863L9.83066 23.5737C9.67677 23.8156 9.54963 24.0306 9.43589 24.239L9.38235 24.3263C9.23516 24.5615 9.10134 24.7833 8.9876 24.9916C8.97374 25.023 8.95573 25.0524 8.93407 25.0789C8.78687 25.3209 8.65306 25.5359 8.53931 25.7509L8.49248 25.8316C8.33859 26.0735 8.20477 26.2885 8.09102 26.5036L8.04417 26.5842C7.89028 26.8261 7.76316 27.0412 7.64272 27.2562L7.59589 27.3436C7.442 27.5788 7.31487 27.8005 7.19443 28.0089C7.18288 28.04 7.16712 28.0694 7.1476 28.0962C7.0004 28.3314 6.86658 28.5532 6.74615 28.7682C6.73305 28.7965 6.71738 28.8235 6.69931 28.8489C6.55211 29.0841 6.4183 29.3058 6.29786 29.5208C6.28476 29.5491 6.26909 29.5761 6.25103 29.6015C6.1239 29.8031 6.00346 30.0047 5.89641 30.2063L5.84288 30.2869C5.70237 30.5087 5.56185 30.7506 5.42134 31.006L5.37451 31.0799C3.96364 33.302 3.216 35.8834 3.22005 38.5189C3.22005 46.1729 9.42251 52.3956 17.0368 52.3956C23.5537 52.3956 29.241 47.7589 30.5658 41.3682L30.5858 41.2741C30.6594 41.0053 30.7263 40.7365 30.7799 40.4811C30.7833 40.4514 30.7901 40.4221 30.7999 40.3938C30.8735 40.1115 30.9338 39.8629 30.9806 39.6344L31.0007 39.5403C31.072 39.2581 31.1322 39.0027 31.1813 38.7742C31.1871 38.7421 31.1961 38.7106 31.2081 38.6802C31.2817 38.3979 31.3419 38.1493 31.3887 37.9208L31.4088 37.8267C31.4824 37.5378 31.5426 37.2891 31.5895 37.0607C31.5962 37.0287 31.6051 36.9973 31.6162 36.9666C31.6898 36.6843 31.75 36.4357 31.7969 36.2072L31.8169 36.1131C31.8905 35.8309 31.9508 35.5823 31.9976 35.3538L32.0177 35.2597C32.098 34.9775 32.1515 34.7288 32.1983 34.5003C32.205 34.4684 32.214 34.437 32.2251 34.4063C32.2987 34.124 32.3589 33.8821 32.4058 33.6469L32.4258 33.5528C32.4994 33.2706 32.5596 33.0287 32.6065 32.7935C32.6132 32.7615 32.6221 32.7301 32.6332 32.6994C32.7068 32.4172 32.7671 32.1752 32.8072 31.94C32.8139 31.9064 32.8273 31.8796 32.834 31.846C32.9076 31.5637 32.9678 31.3218 33.0146 31.0866L33.0347 30.9858C33.0748 30.838 33.115 30.6901 33.1484 30.5356C33.2193 30.2368 33.3734 29.9645 33.5925 29.7503C33.8117 29.5361 34.087 29.389 34.3863 29.326C36.6067 28.8609 38.8692 28.6289 41.1374 28.6338Z" fill="#0088FF"/>
<path d="M65.2378 50.1239C58.8614 50.1239 53.6826 44.9159 53.6826 38.5185C53.6826 32.1211 58.8614 26.9131 65.2378 26.9131C71.6142 26.9131 76.7863 32.1211 76.7863 38.5185C76.7863 44.9159 71.6075 50.1239 65.2378 50.1239ZM65.2378 30.1521C63.0285 30.1521 60.9097 31.0336 59.3475 32.6026C57.7853 34.1716 56.9076 36.2996 56.9076 38.5185C56.9076 40.7374 57.7853 42.8654 59.3475 44.4344C60.9097 46.0034 63.0285 46.8848 65.2378 46.8848C69.8278 46.8848 73.5613 43.1284 73.5613 38.5185C73.5613 33.9086 69.8278 30.1521 65.2378 30.1521Z" fill="#0088FF"/>
<path d="M17.0368 50.1239C10.667 50.1239 5.48828 44.9159 5.48828 38.5185C5.48828 32.1211 10.667 26.9131 17.0368 26.9131C23.4065 26.9131 28.592 32.1211 28.592 38.5185C28.592 44.9159 23.4132 50.1239 17.0368 50.1239ZM17.0368 30.1521C12.4468 30.1521 8.71329 33.9086 8.71329 38.5185C8.71329 43.1284 12.4468 46.8848 17.0368 46.8848C19.2461 46.8848 21.3649 46.0034 22.9271 44.4344C24.4893 42.8654 25.367 40.7374 25.367 38.5185C25.367 36.2996 24.4893 34.1716 22.9271 32.6026C21.3649 31.0336 19.2461 30.1521 17.0368 30.1521Z" fill="#0088FF"/>
<path d="M40.9363 73.6635C53.7553 73.6635 64.1471 72.4781 64.1471 71.0158C64.1471 69.5536 53.7553 68.3682 40.9363 68.3682C28.1174 68.3682 17.7256 69.5536 17.7256 71.0158C17.7256 72.4781 28.1174 73.6635 40.9363 73.6635Z" fill="#99CFFF"/>
</svg>
