<svg width="100" height="101" viewBox="0 0 100 101" fill="none" xmlns="http://www.w3.org/2000/svg">
<path d="M30.7128 15.8145L32.6665 36.942L17.2373 31.7744L30.7128 15.8145Z" fill="#99CFFF"/>
<path d="M32.6603 38.179C32.5286 38.1786 32.3978 38.1582 32.2722 38.1185L16.843 32.9441C16.6516 32.8802 16.4787 32.7701 16.3396 32.6234C16.2005 32.4767 16.0994 32.298 16.0453 32.1029C15.9911 31.9078 15.9855 31.7023 16.0289 31.5044C16.0723 31.3066 16.1635 31.1226 16.2943 30.9684L29.7698 15.0152C29.9263 14.8285 30.1344 14.6925 30.3678 14.6244C30.6011 14.5562 30.8494 14.559 31.0812 14.6323C31.313 14.7056 31.518 14.8461 31.6704 15.0362C31.8228 15.2264 31.9158 15.4575 31.9376 15.7006L33.8914 36.8282C33.9082 37.0327 33.875 37.2383 33.7945 37.4268C33.714 37.6154 33.5888 37.7814 33.4297 37.9102C33.2119 38.0863 32.94 38.1813 32.6603 38.179ZM19.3521 31.1767L31.2619 35.1684L29.7564 18.859L19.3521 31.1767Z" fill="#0088FF"/>
<path d="M50.3238 67.3644L32.6665 36.943L17.2373 31.7754L50.3238 66.9276V67.3644Z" fill="#99CFFF"/>
<path d="M50.3242 68.6007C50.108 68.6022 49.8953 68.5464 49.7073 68.4391C49.5194 68.3317 49.3629 68.1766 49.2537 67.9892L31.8305 37.9711L16.8429 32.9446C16.5333 32.8403 16.2775 32.6168 16.132 32.3231C15.9864 32.0295 15.963 31.6898 16.0668 31.3788C16.1706 31.0678 16.3932 30.811 16.6855 30.6648C16.9779 30.5186 17.3161 30.495 17.6258 30.5993L33.055 35.767C33.3371 35.8633 33.5748 36.0591 33.7241 36.318L51.3881 66.7393C51.5511 67.0238 51.5954 67.3616 51.5115 67.6788C51.4275 67.9961 51.222 68.2671 50.9398 68.4327C50.7531 68.5427 50.5406 68.6007 50.3242 68.6007Z" fill="#0088FF"/>
<path d="M50.3238 68.6C50.1548 68.6001 49.9875 68.5655 49.8322 68.4985C49.6769 68.4315 49.5369 68.3334 49.4206 68.2103L16.3341 32.6146C16.1272 32.393 16.0088 32.1027 16.0013 31.799C15.9939 31.4954 16.0981 31.1996 16.2939 30.9682L29.7694 15.0149C29.8851 14.8771 30.0297 14.7666 30.1927 14.6911C30.3557 14.6156 30.5333 14.577 30.7128 14.5781H69.9282C70.1077 14.577 70.2852 14.6156 70.4483 14.6911C70.6113 14.7666 70.7558 14.8771 70.8716 15.0149L84.3471 30.9682C84.5424 31.1995 84.6468 31.4945 84.6406 31.7977C84.6345 32.101 84.5182 32.3915 84.3136 32.6146L51.2204 68.2103C51.1054 68.3332 50.9664 68.4312 50.8123 68.4983C50.6581 68.5653 50.4918 68.5999 50.3238 68.6ZM18.8833 31.7342L50.3238 65.5491L81.7577 31.7342L69.3594 17.0511H31.2815L18.8833 31.7342Z" fill="#0088FF"/>
<path d="M50.3177 68.6005C50.1013 68.6004 49.8888 68.5424 49.7021 68.4325C49.4199 68.2668 49.2144 67.9958 49.1304 67.6786C49.0464 67.3613 49.0908 67.0236 49.2539 66.739L66.9178 36.3177C67.0683 36.0571 67.3087 35.861 67.5936 35.7667L83.0228 30.599C83.1778 30.5411 83.3427 30.5152 83.5079 30.5228C83.673 30.5303 83.835 30.5712 83.984 30.6429C84.1331 30.7147 84.2663 30.8159 84.3756 30.9404C84.4849 31.065 84.5681 31.2104 84.6202 31.368C84.6723 31.5255 84.6923 31.692 84.679 31.8575C84.6657 32.023 84.6194 32.1841 84.5427 32.3312C84.4661 32.4783 84.3607 32.6084 84.233 32.7138C84.1052 32.8191 83.9576 32.8975 83.799 32.9443L68.8113 37.9708L51.3882 67.989C51.2795 68.1768 51.1232 68.3323 50.9351 68.4397C50.7471 68.5471 50.534 68.6026 50.3177 68.6005Z" fill="#0088FF"/>
<path d="M67.9812 36.942L69.9349 15.8145L50.3239 22.2387L30.7129 15.8145L32.6666 36.942H67.9812Z" fill="white"/>
<path d="M67.9818 38.1791H32.6605C32.354 38.1788 32.0585 38.0636 31.8321 37.856C31.6056 37.6484 31.4644 37.3635 31.4361 37.0569L29.4824 15.9293C29.4643 15.7247 29.4971 15.5188 29.5776 15.33C29.6582 15.1412 29.7841 14.9754 29.944 14.8474C30.1027 14.7179 30.2915 14.6309 30.4928 14.5945C30.694 14.5581 30.9011 14.5734 31.0948 14.6391L50.3245 20.9357L69.5475 14.6391C69.7412 14.5734 69.9483 14.5581 70.1496 14.5945C70.3508 14.6309 70.5396 14.7179 70.6983 14.8474C70.8592 14.9746 70.9857 15.1403 71.0664 15.3293C71.147 15.5183 71.1792 15.7246 71.16 15.9293L69.2062 37.0569C69.1794 37.3641 69.0386 37.6499 68.8119 37.8578C68.5851 38.0656 68.2888 38.1803 67.9818 38.1791ZM33.7846 35.7062H66.8577L68.5304 17.5757L50.7059 23.4154C50.4557 23.4961 50.1866 23.4961 49.9364 23.4154L32.1119 17.5757L33.7846 35.7062Z" fill="#0088FF"/>
<path d="M67.9818 38.179C67.6941 38.1789 67.4153 38.0792 67.1923 37.8968L50.3245 23.8453L33.4501 37.8968C33.3253 38.0005 33.1814 38.0785 33.0266 38.1263C32.8718 38.1742 32.7092 38.1909 32.548 38.1756C32.3867 38.1603 32.2301 38.1133 32.087 38.0372C31.9438 37.9611 31.817 37.8575 31.7138 37.7322C31.6105 37.6068 31.5329 37.4623 31.4852 37.3069C31.4376 37.1514 31.4209 36.9881 31.4361 36.8261C31.4513 36.6642 31.4982 36.5069 31.574 36.3631C31.6497 36.2194 31.7529 36.092 31.8777 35.9883L49.535 21.285C49.7554 21.0996 50.0337 20.998 50.3212 20.998C50.6086 20.998 50.8869 21.0996 51.1073 21.285L68.7713 35.9883C68.9675 36.1507 69.1088 36.37 69.1759 36.6162C69.243 36.8624 69.2326 37.1234 69.146 37.3634C69.0595 37.6034 68.9012 37.8107 68.6927 37.9567C68.4843 38.1028 68.236 38.1804 67.9818 38.179Z" fill="#0088FF"/>
<path d="M32.667 36.9424H67.9816L50.3243 66.9269L32.667 36.9424Z" fill="#99CFFF"/>
<path d="M50.3236 68.1635C50.1091 68.1652 49.8979 68.1101 49.7112 68.004C49.5245 67.8979 49.3688 67.7443 49.2598 67.5587L31.6025 37.5742C31.4915 37.3866 31.4319 37.1728 31.4297 36.9545C31.4276 36.7363 31.4831 36.5213 31.5905 36.3316C31.6979 36.1418 31.8534 35.984 32.0411 35.8741C32.2289 35.7642 32.4423 35.7063 32.6597 35.7061H67.9809C68.198 35.7071 68.411 35.7656 68.5985 35.8754C68.786 35.9853 68.9414 36.1428 69.0492 36.332C69.157 36.5213 69.2133 36.7357 69.2125 36.9537C69.2117 37.1717 69.1539 37.3857 69.0448 37.5742L51.3808 67.5587C51.2723 67.7433 51.1177 67.8962 50.9323 68.0023C50.7468 68.1084 50.537 68.164 50.3236 68.1635ZM34.8208 38.179L50.3236 64.4944L65.8197 38.179H34.8208Z" fill="#0088FF"/>
<path d="M32.667 36.9426L50.3243 22.2393L67.9816 36.9426H32.667Z" fill="#99CFFF"/>
<path d="M67.9813 38.179H32.66C32.4073 38.1792 32.1607 38.1013 31.9536 37.9558C31.7465 37.8103 31.589 37.6044 31.5025 37.3659C31.4174 37.1253 31.4077 36.8644 31.4746 36.6181C31.5416 36.3718 31.6821 36.152 31.8772 35.9883L49.5345 21.285C49.7549 21.0996 50.0332 20.998 50.3206 20.998C50.6081 20.998 50.8864 21.0996 51.1068 21.285L68.7708 35.9883C68.9655 36.1523 69.1052 36.3724 69.1711 36.6188C69.2369 36.8653 69.2256 37.1261 69.1388 37.3659C69.0531 37.6049 68.8958 37.8114 68.6886 37.957C68.4813 38.1026 68.2342 38.1802 67.9813 38.179ZM36.0791 35.7061H64.5622L50.324 23.8453L36.0791 35.7061Z" fill="#0088FF"/>
<path d="M50.3242 66.9276L82.4941 31.7754L67.9815 36.943L50.3242 66.9276Z" fill="#99CFFF"/>
<path d="M50.3245 68.1633C50.1067 68.1643 49.8924 68.1071 49.7037 67.9978C49.515 67.8884 49.3585 67.7307 49.2503 67.5407C49.1422 67.3507 49.0861 67.1353 49.0879 66.9165C49.0897 66.6977 49.1493 66.4832 49.2607 66.2951L66.918 36.3106C67.0677 36.063 67.2964 35.8735 67.567 35.773L82.0795 30.6053C82.3392 30.5101 82.6232 30.5054 82.8858 30.5919C83.1484 30.6784 83.3744 30.8513 83.5274 31.0825C83.6804 31.3137 83.7514 31.5899 83.7291 31.8666C83.7068 32.1433 83.5924 32.4044 83.4043 32.6079L51.2278 67.7601C51.1142 67.8876 50.9749 67.9895 50.8192 68.059C50.6635 68.1285 50.4949 68.1641 50.3245 68.1633ZM68.8182 37.957L57.3633 57.3979L78.2256 34.6037L68.8182 37.957Z" fill="#0088FF"/>
<path d="M51.2605 87.436C64.0795 87.436 74.4713 86.2506 74.4713 84.7883C74.4713 83.326 64.0795 82.1406 51.2605 82.1406C38.4416 82.1406 28.0498 83.326 28.0498 84.7883C28.0498 86.2506 38.4416 87.436 51.2605 87.436Z" fill="#99CFFF"/>
</svg>
