<svg id="Layer_1" data-name="Layer 1" xmlns="http://www.w3.org/2000/svg" xmlns:xlink="http://www.w3.org/1999/xlink" viewBox="0 0 283.5 283.5"><defs><style>.cls-1{fill:#2ed6fb;}.cls-2{fill:#ff7f00;}.cls-3{fill:#1080ec;}.cls-4{fill:url(#linear-gradient);}.cls-5{fill:url(#linear-gradient-2);}.cls-6{fill:url(#linear-gradient-3);}.cls-7{fill:url(#linear-gradient-4);}.cls-8{fill:#fff;}</style><linearGradient id="linear-gradient" x1="107.4" y1="168.44" x2="107.4" y2="114.91" gradientUnits="userSpaceOnUse"><stop offset="0.4" stop-color="#1080ec"/><stop offset="1" stop-color="#2ed6fb"/></linearGradient><linearGradient id="linear-gradient-2" x1="148.49" y1="168.44" x2="148.49" y2="114.91" xlink:href="#linear-gradient"/><linearGradient id="linear-gradient-3" x1="198.28" y1="169.57" x2="198.28" y2="113.78" xlink:href="#linear-gradient"/><linearGradient id="linear-gradient-4" x1="250.83" y1="168.44" x2="250.83" y2="114.83" xlink:href="#linear-gradient"/></defs><path class="cls-1" d="M0,168.4l23.1-67.1a6.6,6.6,0,0,1,6.1-4.4H63.4l-6.9,19.5H31.7l-17.8,52Z"/><path class="cls-2" d="M61.8,96.9H84.5L79.3,112a6.6,6.6,0,0,1-6.2,4.4H50.4l5.2-15.1A6.6,6.6,0,0,1,61.8,96.9Z"/><path class="cls-3" d="M39.2,148.9H55.4a6.6,6.6,0,0,0,6.2-4.4l5.2-15.1H45.9l4.5-13H29a6.6,6.6,0,0,0-6.1,4.4L6.5,168.4H27.9A6.6,6.6,0,0,0,34,164Z"/><path class="cls-4" d="M131.9,118.1l-2.4,6.8c-.9,2.4-2.1,3.2-4.7,3.2H112.9L99.4,165.3c-.8,2.3-2,3.1-4.6,3.1h-9c-2.6,0-3.1-.8-2.3-3.1l13.6-37.2h-12c-2.6,0-3.1-.8-2.2-3.2l2.5-6.8c.8-2.4,1.9-3.2,4.5-3.2h39.7C132.2,114.9,132.8,115.7,131.9,118.1Z"/><path class="cls-5" d="M177.3,118.1l-2.4,6.8c-.9,2.4-2.1,3.2-4.7,3.2H149.1l-2.5,6.7h16.9c2.6,0,3.2.8,2.3,3.2l-2.4,6.8c-.9,2.4-2.1,3.2-4.7,3.2H141.8l-2.6,7.2h21.9c2.5,0,3.1.8,2.2,3.2l-2.5,6.9c-.9,2.3-2,3.1-4.5,3.1H121.9c-2.5,0-3.1-.8-2.3-3.1l17.2-47.2c.9-2.4,2.1-3.2,4.6-3.2H175C177.6,114.9,178.2,115.7,177.3,118.1Z"/><path class="cls-6" d="M208.4,113.8c12.4,0,18.4,4.7,18.7,13.2,0,2.2-1,3.3-3.7,4l-9.6,2.9c-2.8.7-3.6.3-3.6-2s-2.1-4.9-6.6-4.9c-6.3,0-9.7,2.5-11.7,7.8l-5,13.7c-1.9,5.3-.3,7.9,6,7.9a11.8,11.8,0,0,0,10.1-4.9c1.9-2.4,3-2.9,5.1-2.1l7.6,2.9c2.1.8,2.2,1.9.6,4.1-6.4,8.4-15.8,13.2-28.2,13.2-15.8,0-21.8-8.1-17-21.1l4.9-13.6C180.8,121.8,192.6,113.8,208.4,113.8Z"/><path class="cls-7" d="M283.1,118.1l-17.2,47.2c-.8,2.3-2,3.1-4.5,3.1h-9.2c-2.5,0-3-.8-2.2-3.1l6.3-17.4H240.8l-6.3,17.4c-.9,2.3-2,3.1-4.6,3.1h-9c-2.6,0-3.2-.8-2.3-3.1l17.1-47.2c.9-2.4,2.1-3.3,4.7-3.3h9c2.6,0,3.1.9,2.2,3.3l-6,16.6h15.5l6.1-16.6c.9-2.4,2.1-3.3,4.5-3.3h9.2C283.4,114.8,284,115.7,283.1,118.1Z"/><path class="cls-8" d="M86.7,177.5l-.6,1.7H83.4l-2.8,7.2h-2l2.7-7.2H78.6l.7-1.7Z"/><path class="cls-8" d="M97.3,177.9a3.7,3.7,0,0,1,1.3,1.5,4.7,4.7,0,0,1,.2,2.1,6.2,6.2,0,0,1-1.2,2.6,5.8,5.8,0,0,1-2.3,1.8,6.4,6.4,0,0,1-2.7.7,3.8,3.8,0,0,1-2.2-.6,3.7,3.7,0,0,1-1.3-1.5,4,4,0,0,1-.1-2.2,5.1,5.1,0,0,1,1.1-2.5,5.8,5.8,0,0,1,2.3-1.8,6.4,6.4,0,0,1,2.7-.7A3.8,3.8,0,0,1,97.3,177.9Zm-4.2,1.6a4.7,4.7,0,0,0-1.3,1.1,3.3,3.3,0,0,0-.7,1.6,1.9,1.9,0,0,0,.1,1.3,2.3,2.3,0,0,0,.7,1,2.1,2.1,0,0,0,1.2.3,2.8,2.8,0,0,0,1.5-.4,3.2,3.2,0,0,0,2-2.7,2.8,2.8,0,0,0,0-1.3,2.5,2.5,0,0,0-.8-1,2,2,0,0,0-1.1-.3A2.9,2.9,0,0,0,93.1,179.5Z"/><path class="cls-8" d="M111.5,182.7a6.7,6.7,0,0,1-2.1,2.8,5.1,5.1,0,0,1-3.2,1,3.7,3.7,0,0,1-2.5-.8,2.1,2.1,0,0,1-.5-2.1,2.9,2.9,0,0,1,.2-.9l2-5.2h2l-2,5.2a4.3,4.3,0,0,1-.1.5,1.2,1.2,0,0,0,.2,1.1,1.7,1.7,0,0,0,1.2.5,2.5,2.5,0,0,0,1.6-.6,4.4,4.4,0,0,0,1.2-1.5l1.9-5.2h2Z"/><path class="cls-8" d="M124.6,177.7a3.6,3.6,0,0,1,1.3,1.1l-1.5,1.5a2,2,0,0,0-.9-.9,2,2,0,0,0-1.1-.3,2.9,2.9,0,0,0-1.6.4,4.7,4.7,0,0,0-1.3,1.1,3.3,3.3,0,0,0-.7,1.6,2.9,2.9,0,0,0,.1,1.3,1.6,1.6,0,0,0,.7.9,2.1,2.1,0,0,0,1.2.3l1.3-.3,1.3-.7.9,1.3-2,1.1a6.3,6.3,0,0,1-2.1.5,3.7,3.7,0,0,1-2.1-.6,2.9,2.9,0,0,1-1.2-1.5,4,4,0,0,1-.2-2.2,6.2,6.2,0,0,1,1.1-2.5,6.6,6.6,0,0,1,2.3-1.8,6.8,6.8,0,0,1,2.7-.7A4.8,4.8,0,0,1,124.6,177.7Z"/><path class="cls-8" d="M138.5,177.5h2l-3.3,8.9h-2l1.3-3.5h-4l-1.4,3.5h-2l3.4-8.9h2l-1.4,3.7h4Z"/><path class="cls-8" d="M160.2,177.5l-.7,1.7h-2.7l-2.7,7.2h-2l2.7-7.2h-2.7l.6-1.7Z"/><path class="cls-8" d="M171.5,177.5h2.1l-3.4,8.9h-2l1.3-3.5h-4l-1.4,3.5h-2l3.4-8.9h2l-1.4,3.7h4Z"/><path class="cls-8" d="M185.9,179.2h-4.7l-.8,1.9h4.3l-.6,1.7h-4.3l-.7,1.9H184l-.6,1.7h-7l3.4-8.9h6.8Z"/><path class="cls-8" d="M204.7,179.2h-4.4l-.8,2.2h4l-.6,1.6h-4l-1.3,3.4h-2l3.3-8.9h6.5Z"/><path class="cls-8" d="M216.3,182.7a5.4,5.4,0,0,1-2.1,2.8,5.1,5.1,0,0,1-3.2,1,3.3,3.3,0,0,1-2.4-.8,2,2,0,0,1-.6-2.1c.1-.3.1-.6.2-.9l2-5.2h2l-1.9,5.2-.2.5a1,1,0,0,0,.3,1.1,1.3,1.3,0,0,0,1.1.5,2.7,2.7,0,0,0,1.7-.6,4.2,4.2,0,0,0,1.1-1.5l1.9-5.2h2.1Z"/><path class="cls-8" d="M230.5,177.5l-.7,1.7h-2.7l-2.7,7.2h-2l2.7-7.2h-2.7l.6-1.7Z"/><path class="cls-8" d="M241.3,182.7a5.8,5.8,0,0,1-2,2.8,5.6,5.6,0,0,1-3.3,1,3.3,3.3,0,0,1-2.4-.8,2.4,2.4,0,0,1-.6-2.1l.3-.9,1.9-5.2h2l-1.9,5.2c-.1.2-.1.4-.2.5s0,.9.3,1.1a1.3,1.3,0,0,0,1.1.5,2.7,2.7,0,0,0,1.7-.6,3.3,3.3,0,0,0,1.1-1.5l2-5.2h2Z"/><path class="cls-8" d="M254.5,182.2a4.6,4.6,0,0,1-2,1.3l.8,2.9H251l-.4-2.5h-2.1l-.9,2.5h-2l3.3-8.9h3.9a3.4,3.4,0,0,1,2.2.6,2.1,2.1,0,0,1,.5,1.9A6.2,6.2,0,0,1,254.5,182.2Zm-5.3,0H251a3.1,3.1,0,0,0,1.7-.5,2.7,2.7,0,0,0,.8-1.4,1.1,1.1,0,0,0-.3-.8,1.3,1.3,0,0,0-1-.3h-1.9Z"/><path class="cls-8" d="M268.2,179.2h-4.8l-.8,1.9h4.3l-.6,1.7H262l-.7,1.9h4.9l-.6,1.7h-7l3.4-8.9h6.8Z"/></svg>