<svg width="24" height="24" viewBox="0 0 24 24" fill="none" xmlns="http://www.w3.org/2000/svg">
<path d="M7.20859 10.1664H5.125C4.78047 10.1664 4.5 10.4461 4.5 10.7914V12.875C4.5 13.2195 4.78047 13.5 5.125 13.5H7.20859C7.55391 13.5 7.83359 13.2195 7.83359 12.875V10.7914C7.83359 10.4461 7.55391 10.1664 7.20859 10.1664Z" fill="#747C87"/>
<path d="M7.20859 15.1664H5.125C4.78047 15.1664 4.5 15.4461 4.5 15.7914V17.875C4.5 18.2195 4.78047 18.5 5.125 18.5H7.20859C7.55391 18.5 7.83359 18.2195 7.83359 17.875V15.7914C7.83359 15.4461 7.55391 15.1664 7.20859 15.1664Z" fill="#747C87"/>
<path d="M13.0416 10.1664H10.958C10.6127 10.1664 10.333 10.4461 10.333 10.7914V12.875C10.333 13.2195 10.6127 13.5 10.958 13.5H13.0416C13.3861 13.5 13.6666 13.2195 13.6666 12.875V10.7914C13.6666 10.4461 13.3861 10.1664 13.0416 10.1664Z" fill="#747C87"/>
<path d="M13.0416 15.1664H10.958C10.6127 15.1664 10.333 15.4461 10.333 15.7914V17.875C10.333 18.2195 10.6127 18.5 10.958 18.5H13.0416C13.3861 18.5 13.6666 18.2195 13.6666 17.875V15.7914C13.6666 15.4461 13.3861 15.1664 13.0416 15.1664Z" fill="#747C87"/>
<path d="M18.8746 10.1664H16.791C16.4457 10.1664 16.166 10.4461 16.166 10.7914V12.875C16.166 13.2195 16.4457 13.5 16.791 13.5H18.8746C19.2191 13.5 19.4996 13.2195 19.4996 12.875V10.7914C19.4996 10.4461 19.2191 10.1664 18.8746 10.1664Z" fill="#747C87"/>
<path d="M19.5 3.5H4.5C3.12109 3.5 2 4.62109 2 6V18.5C2 19.8789 3.12109 21 4.5 21H19.5C20.8789 21 22 19.8789 22 18.5V6C22 4.62109 20.8789 3.5 19.5 3.5ZM20.3336 18.5C20.3336 18.9602 19.9594 19.3336 19.5 19.3336H4.5C4.03984 19.3336 3.66641 18.9594 3.66641 18.5V9.36641H20.3328V18.5H20.3336Z" fill="#747C87"/>
<path d="M7.0002 2H6.1666C5.70645 2 5.33301 2.37266 5.33301 2.83359V6.16719C5.33301 6.62734 5.70566 7.00078 6.1666 7.00078H7.0002C7.46035 7.00078 7.83379 6.62813 7.83379 6.16719V2.83359C7.83379 2.37266 7.46035 2 7.0002 2Z" fill="#747C87"/>
<path d="M17.8332 2H16.9996C16.5395 2 16.166 2.37266 16.166 2.83359V6.16719C16.166 6.62734 16.5402 7 16.9996 7H17.8332C18.2934 7 18.6668 6.62734 18.6668 6.16641V2.83359C18.666 2.37266 18.2934 2 17.8332 2Z" fill="#747C87"/>
</svg>
