<svg width="119" height="39" viewBox="0 0 119 39" fill="none" xmlns="http://www.w3.org/2000/svg">
<g clip-path="url(#clip0_1_23079)">
<path opacity="0.5" d="M0 32.8483L10.4713 2.55399C10.8806 1.36962 11.9984 0.575195 13.257 0.575195H28.7496L25.5919 9.37666H14.3748L6.31547 32.8483H0Z" fill="white"/>
<path d="M27.989 0.575195H38.2905L35.9319 7.39786C35.5226 8.58224 34.4048 9.37666 33.1462 9.37666H22.8447L25.2033 2.55399C25.6126 1.36962 26.7304 0.575195 27.989 0.575195Z" fill="white"/>
<path d="M17.7737 24.0465H25.1294C26.3863 24.0465 27.5058 23.2521 27.915 22.0677L30.2736 15.245H20.8166L22.8452 9.37793H13.1568C11.8999 9.37793 10.7804 10.1723 10.3712 11.3567L2.94434 32.848H12.6262C13.8832 32.848 15.001 32.0536 15.4103 30.8708L17.7737 24.0465Z" fill="white"/>
<path d="M55.7377 9.62598C56.2635 9.62598 56.5951 9.72911 56.7358 9.93698C56.8749 10.1448 56.8474 10.4977 56.6533 11.0005L55.6245 13.9429C55.4481 14.4666 55.22 14.8308 54.945 15.0387C54.6684 15.2465 54.2688 15.3497 53.7431 15.3497H48.8852L43.2734 31.4717C43.0776 31.9729 42.8479 32.3274 42.5826 32.5353C42.3173 32.7431 41.9226 32.8463 41.3969 32.8463H37.6875C37.1617 32.8463 36.8301 32.7431 36.6894 32.5353C36.5486 32.329 36.5778 31.9745 36.7719 31.4717L42.3836 15.3497H37.4917C36.966 15.3497 36.6392 15.2465 36.5114 15.0387C36.382 14.8324 36.4063 14.4666 36.5842 13.9429L37.6131 11.0005C37.8088 10.4994 38.0385 10.1448 38.3038 9.93698C38.5691 9.73072 38.9638 9.62598 39.4896 9.62598H55.7377Z" fill="white"/>
<path d="M74.3184 9.62598C74.8441 9.62598 75.1758 9.72911 75.3165 9.93698C75.4556 10.1448 75.4395 10.4977 75.2664 11.0005L74.2375 13.9429C74.0612 14.4666 73.8282 14.8308 73.5419 15.0387C73.2539 15.2465 72.8592 15.3497 72.3561 15.3497H63.6885L62.6661 18.2599H69.5931C70.1189 18.2599 70.4456 18.363 70.5734 18.5709C70.7028 18.7787 70.6802 19.1332 70.5071 19.6344L69.4783 22.5768C69.2793 23.1005 69.0479 23.4647 68.7826 23.6725C68.5173 23.8804 68.1226 23.9836 67.5969 23.9836H60.6699L59.5747 27.1226H68.5368C69.0399 27.1226 69.3569 27.2209 69.488 27.4174C69.619 27.614 69.5947 27.9734 69.4184 28.4971L68.3847 31.4733C68.2116 31.9745 67.9867 32.329 67.7101 32.5369C67.4335 32.7447 67.0339 32.8479 66.5082 32.8479H52.4892C51.9635 32.8479 51.6319 32.7447 51.4911 32.5369C51.3504 32.3306 51.3795 31.9761 51.5736 31.4733L58.6834 11.0021C58.8791 10.501 59.1088 10.1465 59.3741 9.93859C59.6394 9.73233 60.0342 9.62759 60.5599 9.62759L74.3184 9.62598Z" fill="white"/>
<path d="M74.8861 17.8341C75.8471 15.0222 77.4583 12.8694 79.7166 11.3756C81.9749 9.88182 84.7233 9.13574 87.962 9.13574C92.6889 9.13574 95.083 11.0759 95.1413 14.9561C95.1688 15.4363 95.0766 15.8118 94.8663 16.0841C94.656 16.3564 94.2742 16.5691 93.7226 16.7222L90.1458 17.8663C89.5942 18.0194 89.2141 18.0355 89.0054 17.9147C88.7967 17.7954 88.6786 17.4844 88.656 16.9833C88.6285 16.242 88.4149 15.7022 88.0137 15.3638C87.6125 15.0254 86.9509 14.8562 86.0321 14.8562C84.7622 14.8562 83.7463 15.135 82.9843 15.6893C82.2208 16.2452 81.6432 17.1009 81.2485 18.2563L79.1488 24.2088C78.7541 25.3642 78.7443 26.2198 79.1197 26.7757C79.495 27.3317 80.3184 27.6088 81.5866 27.6088C83.3159 27.6088 84.6942 26.9014 85.7247 25.4834C86.121 24.9597 86.4591 24.639 86.7422 24.5182C87.0253 24.3989 87.3812 24.4263 87.8115 24.6003L91.0016 25.9088C91.8024 26.215 91.8881 26.8031 91.2572 27.6749C88.5557 31.4472 84.6975 33.3325 79.6858 33.3325C76.5119 33.3325 74.3232 32.472 73.118 30.7495C71.9128 29.0269 71.7947 26.7387 72.7654 23.8817L74.8861 17.8341Z" fill="white"/>
<path d="M117.527 9.59473C118.03 9.59473 118.346 9.69786 118.475 9.90573C118.604 10.1136 118.579 10.4778 118.402 11.0015L111.292 31.4727C111.097 31.9738 110.867 32.3284 110.602 32.5362C110.336 32.7441 109.942 32.8472 109.416 32.8472H105.707C105.181 32.8472 104.849 32.7441 104.708 32.5362C104.568 32.33 104.597 31.9755 104.791 31.4727L107.389 23.9507H101.052L98.4204 31.4727C98.2473 31.9738 98.0225 32.3284 97.7459 32.5362C97.4692 32.7441 97.0697 32.8472 96.5439 32.8472H92.8345C92.3088 32.8472 91.982 32.7441 91.8542 32.5362C91.7248 32.33 91.7475 31.9755 91.9205 31.4727L99.0627 11.0015C99.2616 10.4778 99.493 10.1136 99.7583 9.90573C100.024 9.69947 100.418 9.59473 100.944 9.59473H104.653C105.179 9.59473 105.506 9.69786 105.634 9.90573C105.763 10.1136 105.737 10.4778 105.561 11.0015L103.045 18.2286H109.382L111.897 11.0015C112.074 10.4778 112.307 10.1136 112.593 9.90573C112.879 9.69947 113.276 9.59473 113.779 9.59473H117.527Z" fill="white"/>
<path d="M36.6557 35.2214H35.5039L35.711 34.6768H38.6584L38.4465 35.2214H37.2947L36.1898 38.1445H35.5443L36.6557 35.2214Z" fill="white"/>
<path d="M40.1388 38.0083C39.9107 37.8842 39.7505 37.7118 39.6583 37.4878C39.5661 37.2654 39.5467 37.006 39.5985 36.7127C39.668 36.3228 39.8201 35.9699 40.0547 35.6524C40.2892 35.335 40.5836 35.0852 40.9412 34.9015C41.2987 34.7178 41.6853 34.626 42.1027 34.626C42.4472 34.626 42.7319 34.6872 42.96 34.8113C43.1881 34.9354 43.3483 35.1078 43.4405 35.3318C43.5327 35.5541 43.5521 35.8136 43.5003 36.1069C43.4308 36.4968 43.2787 36.8497 43.0442 37.1672C42.8096 37.4846 42.5152 37.7344 42.1577 37.9181C41.8001 38.1018 41.4135 38.1936 40.9962 38.1936C40.6516 38.1936 40.3653 38.1324 40.1388 38.0083ZM41.9344 37.4282C42.1755 37.2945 42.3744 37.114 42.533 36.8884C42.6915 36.6628 42.7934 36.4146 42.8419 36.1471C42.8937 35.8571 42.8419 35.625 42.6866 35.451C42.5313 35.277 42.2822 35.1916 41.9425 35.1916C41.661 35.1916 41.4006 35.2576 41.1595 35.3914C40.9185 35.5251 40.7195 35.7056 40.5642 35.9312C40.4073 36.1568 40.3054 36.405 40.2569 36.6725C40.2051 36.9625 40.2553 37.1945 40.4106 37.3686C40.5642 37.5426 40.8117 37.628 41.1531 37.628C41.4329 37.6296 41.6934 37.5619 41.9344 37.4282Z" fill="white"/>
<path d="M45.5761 37.877C45.3738 37.6659 45.3059 37.3759 45.3722 37.0052C45.3916 36.8957 45.4272 36.7732 45.479 36.633L46.2231 34.6768H46.8686L46.1277 36.6233C46.0808 36.7555 46.05 36.857 46.0371 36.9311C45.995 37.1632 46.0306 37.3372 46.1423 37.4532C46.2539 37.5708 46.4334 37.6288 46.6809 37.6288C46.9592 37.6288 47.1954 37.5483 47.3927 37.3855C47.5885 37.2244 47.7551 36.9682 47.891 36.6185L48.627 34.6768H49.2628L48.5089 36.6636C48.3148 37.1728 48.0511 37.5547 47.7179 37.8109C47.3846 38.0671 46.9835 38.1944 46.5176 38.1944C46.0905 38.1928 45.7783 38.0881 45.5761 37.877Z" fill="white"/>
<path d="M51.2243 38.0083C50.993 37.8842 50.8296 37.7102 50.7358 37.4862C50.6404 37.2622 50.6193 37.0044 50.6711 36.7127C50.7407 36.3228 50.8943 35.9699 51.1289 35.6524C51.3651 35.335 51.6611 35.0852 52.0186 34.9015C52.3761 34.7178 52.7644 34.626 53.185 34.626C53.4859 34.626 53.7431 34.6759 53.955 34.7742C54.1669 34.8741 54.3158 35.0175 54.4015 35.2045L53.8644 35.596C53.7172 35.3253 53.4422 35.19 53.0394 35.19C52.7514 35.19 52.4861 35.256 52.2451 35.3882C52.0025 35.5203 51.8019 35.6992 51.6417 35.9248C51.4816 36.1504 51.378 36.4001 51.3295 36.6708C51.2761 36.9641 51.3295 37.1978 51.4864 37.3686C51.6449 37.541 51.8973 37.6264 52.2435 37.6264C52.6431 37.6264 52.9973 37.4927 53.3031 37.2252L53.6072 37.6312C53.4082 37.8198 53.1785 37.96 52.9213 38.0518C52.6625 38.1437 52.3875 38.1904 52.093 38.1904C51.7452 38.1936 51.4557 38.1324 51.2243 38.0083Z" fill="white"/>
<path d="M59.8357 34.6768L58.5189 38.1445H57.8783L58.4347 36.6733H56.6375L56.081 38.1445H55.4355L56.7523 34.6768H57.3978L56.8591 36.098H58.6564L59.1951 34.6768H59.8357Z" fill="white"/>
<path d="M65.6186 35.2214H64.4668L64.6739 34.6768H67.6213L67.4094 35.2214H66.2576L65.1527 38.1445H64.5072L65.6186 35.2214Z" fill="white"/>
<path d="M72.6794 34.6768L71.3626 38.1445H70.722L71.2785 36.6733H69.4812L68.9248 38.1445H68.2793L69.5961 34.6768H70.2416L69.7029 36.098H71.5001L72.0388 34.6768H72.6794Z" fill="white"/>
<path d="M75.5404 35.2162L75.199 36.117H76.8814L76.6825 36.6472H74.9952L74.6345 37.6027H76.6L76.3945 38.1425H73.79L75.1068 34.6748H77.6434L77.4379 35.2146L75.5404 35.2162Z" fill="white"/>
<path d="M83.2178 35.2166L82.8149 36.272H84.4973L84.2903 36.8167H82.6127L82.1064 38.1445H81.4609L82.7777 34.6768H85.3143L85.1088 35.2166H83.2178Z" fill="white"/>
<path d="M86.8762 37.877C86.6805 37.6659 86.6158 37.3759 86.6805 37.0052C86.6999 36.8957 86.7339 36.7732 86.784 36.633L87.5023 34.6768H88.1267L87.4101 36.6233C87.3648 36.7555 87.3357 36.857 87.3227 36.9311C87.2823 37.1632 87.3162 37.3372 87.4246 37.4532C87.533 37.5708 87.7061 37.6288 87.9455 37.6288C88.2141 37.6288 88.4438 37.5483 88.633 37.3855C88.8223 37.2244 88.9825 36.9682 89.1135 36.6185L89.8253 34.6768H90.4384L89.7104 36.6636C89.5228 37.1728 89.2688 37.5547 88.9453 37.8109C88.6233 38.0671 88.2367 38.1944 87.7854 38.1944C87.3729 38.1928 87.0704 38.0881 86.8762 37.877Z" fill="white"/>
<path d="M93.267 35.2214H92.1152L92.3223 34.6768H95.2697L95.0578 35.2214H93.906L92.8011 38.1445H92.1557L93.267 35.2214Z" fill="white"/>
<path d="M96.5057 37.877C96.3035 37.6659 96.2356 37.3759 96.3019 37.0052C96.3213 36.8957 96.3569 36.7732 96.4087 36.633L97.1512 34.6768H97.7967L97.0541 36.6233C97.0072 36.7555 96.9781 36.857 96.9636 36.9311C96.9215 37.1632 96.9571 37.3372 97.0687 37.4532C97.1803 37.5708 97.3599 37.6288 97.6074 37.6288C97.8856 37.6288 98.1218 37.5483 98.3192 37.3855C98.5149 37.2244 98.6815 36.9682 98.8174 36.6185L99.5535 34.6768H100.189L99.4354 36.6636C99.2413 37.1728 98.9776 37.5547 98.6443 37.8109C98.3111 38.0671 97.9099 38.1944 97.444 38.1944C97.0202 38.1928 96.708 38.0881 96.5057 37.877Z" fill="white"/>
<path d="M104.649 36.565C104.429 36.7938 104.151 36.9533 103.814 37.0436L104.236 38.1425H103.552L103.164 37.1274H103.159H102.3L101.92 38.1425H101.27L102.586 34.6748H103.935C104.356 34.6748 104.665 34.7667 104.861 34.9504C105.058 35.1341 105.126 35.3903 105.068 35.7206C105.008 36.0542 104.869 36.3362 104.649 36.565ZM104.041 36.3877C104.238 36.2475 104.361 36.0445 104.408 35.7802C104.442 35.5949 104.403 35.4563 104.291 35.3613C104.181 35.2678 104.007 35.2195 103.769 35.2195H103.03L102.504 36.5972H103.274C103.588 36.5972 103.843 36.5279 104.041 36.3877Z" fill="white"/>
<path d="M108.137 35.2162L107.795 36.117H109.478L109.279 36.6472H107.592L107.231 37.6027H109.196L108.991 38.1425H106.385L107.702 34.6748H110.238L110.033 35.2146L108.137 35.2162Z" fill="white"/>
</g>
<defs>
<clipPath id="clip0_1_23079">
<rect width="118.617" height="37.9252" fill="white" transform="translate(0 0.575195)"/>
</clipPath>
</defs>
</svg>
