<svg width="108" height="38" viewBox="0 0 108 38" fill="none" xmlns="http://www.w3.org/2000/svg">
<path d="M75.2029 34.9323C75.0919 34.7101 75.0302 34.2288 75.0302 33.8832C75.0302 33.6364 75.0631 33.0564 75.1289 32.8301C75.2934 32.2748 75.8282 31.958 76.5934 31.958H78.568V31.3574H76.6551C75.9187 31.3574 75.3346 31.5384 74.9191 31.8963C74.3267 32.4146 74.2773 33.1633 74.2773 33.8257C74.2773 34.4345 74.3185 35.0721 74.7916 35.5575C75.0631 35.8373 75.5732 36.1705 76.4412 36.1705H78.6873V35.5699H76.7044C75.9228 35.5699 75.421 35.356 75.2029 34.9323Z" fill="#221F1F"/>
<path d="M83.0644 35.2817C83.0644 35.3434 83.0644 35.438 82.9945 35.4998C82.941 35.545 82.8299 35.5738 82.7024 35.5738H81.2091C80.7402 35.5738 80.4111 35.5285 80.2136 35.2982C80.0861 35.1583 80.0244 34.9115 80.0244 34.5412V31.3613H79.3086V34.6811C79.3086 34.9362 79.3086 35.4627 79.7899 35.8371C80.1478 36.1168 80.5468 36.1703 81.1557 36.1703H82.616C82.9287 36.1703 83.2537 36.1703 83.4799 36.014C83.772 35.8083 83.772 35.4586 83.772 35.3434V31.3613H83.0562V35.2817H83.0644Z" fill="#221F1F"/>
<path d="M87.5443 31.3574H84.8086V31.958H87.5113C87.7499 31.958 87.9268 32.0526 88.0132 32.139C88.1284 32.2624 88.1901 32.501 88.1901 32.6244V33.2168H85.9481C85.4833 33.2168 85.1377 33.3032 84.8868 33.4801C84.4507 33.7928 84.4014 34.2946 84.4014 34.6484C84.4014 35.2696 84.5741 35.7056 84.9197 35.9483C85.2241 36.1581 85.5943 36.1746 85.9481 36.1746H88.0173C88.2066 36.1746 88.4986 36.1746 88.6879 36.0224C88.9059 35.8455 88.9059 35.574 88.9059 35.4712V32.7067C88.9059 32.2583 88.7907 31.9333 88.5521 31.7153C88.3259 31.4932 87.9392 31.3574 87.5443 31.3574ZM85.8288 33.8133H88.1901V35.4547C88.1901 35.5082 88.1901 35.5123 88.1572 35.537C88.112 35.5699 88.0297 35.5699 87.9803 35.5699H85.8083C85.5943 35.5699 85.4298 35.4794 85.3475 35.3971C85.1789 35.2202 85.1583 34.8911 85.1583 34.6607C85.1583 34.3234 85.2035 34.126 85.3105 34.0067C85.3393 33.9738 85.4915 33.8133 85.8288 33.8133Z" fill="#221F1F"/>
<path d="M94.4508 31.3559H92.8012V29.875H92.0566V35.3504C92.0566 35.5478 92.0896 35.8358 92.3611 36.0127C92.5791 36.1567 92.9205 36.169 93.2784 36.169H94.4796C95.0802 36.169 95.94 36.0867 96.4542 35.3709C96.7915 34.902 96.8409 34.3507 96.8409 33.8242C96.8409 33.4334 96.8409 32.7094 96.446 32.1581C95.9318 31.4382 95.0597 31.3559 94.4508 31.3559ZM96.0593 33.9558C96.0593 34.3302 96.0346 34.7169 95.8413 35.0048C95.5163 35.5067 94.8828 35.5725 94.3644 35.5725H93.0892C92.9 35.5725 92.8424 35.5314 92.8382 35.5273C92.8012 35.4861 92.8012 35.3874 92.8012 35.3092V31.9607H94.4097C94.928 31.9607 95.5615 32.0306 95.8495 32.5695C96.0017 32.8657 96.0593 33.4992 96.0593 33.9558Z" fill="#221F1F"/>
<path d="M100.535 31.3574H97.7006V31.958H100.506C100.753 31.958 100.938 32.0526 101.025 32.139C101.144 32.2624 101.21 32.4969 101.21 32.6244V33.2168H98.8854C98.4041 33.2168 98.0421 33.3032 97.787 33.4801C97.3345 33.7969 97.2852 34.2946 97.2852 34.6484C97.2852 35.2696 97.4662 35.7056 97.8241 35.9483C98.1408 36.1581 98.5234 36.1746 98.8895 36.1746H101.037C101.234 36.1746 101.535 36.1746 101.732 36.0224C101.958 35.8455 101.958 35.574 101.958 35.4712V32.7067C101.958 32.2583 101.839 31.9333 101.592 31.7153C101.345 31.4932 100.942 31.3574 100.535 31.3574ZM101.206 33.8133V35.4547C101.206 35.5082 101.206 35.5123 101.173 35.537C101.123 35.5699 101.041 35.5699 100.988 35.5699H98.7332C98.511 35.5699 98.3424 35.4794 98.256 35.3971C98.0832 35.2202 98.0626 34.8911 98.0626 34.6607C98.0626 34.3234 98.112 34.126 98.219 34.0067C98.2478 33.9738 98.4082 33.8133 98.7537 33.8133H101.206Z" fill="#221F1F"/>
<path d="M106.937 31.7233C106.55 31.4025 106.056 31.3613 105.579 31.3613H103.58C103.395 31.3613 103.132 31.3819 102.959 31.567C102.823 31.711 102.807 31.9167 102.807 32.0565V36.1703H103.551V32.0401C103.551 31.9866 103.555 31.966 103.555 31.966C103.568 31.9578 103.609 31.9578 103.634 31.9578H105.612C105.966 31.9578 106.242 32.0031 106.443 32.2129C106.604 32.3815 106.661 32.5831 106.661 32.978V36.1662H107.406V32.8628C107.402 32.361 107.245 31.9784 106.937 31.7233Z" fill="#221F1F"/>
<path d="M36.7358 31.7097C36.4313 31.467 36.0282 31.3559 35.4276 31.3559H33.5517V29.875H32.8359V36.169H33.5517V31.9565H35.477C35.7443 31.9565 36.0488 31.9771 36.2832 32.2075C36.5177 32.4461 36.5177 32.8245 36.5177 32.9521V36.169H37.2335V33.0055C37.2376 32.5901 37.18 32.0717 36.7358 31.7097Z" fill="#221F1F"/>
<path d="M42.4293 33.8586C42.6021 33.731 42.6926 33.5048 42.6926 33.1798C42.6926 32.4928 42.3676 31.9457 41.7793 31.6289C41.331 31.4027 40.7633 31.3574 40.3683 31.3574C39.8788 31.3574 39.163 31.4027 38.6282 31.7852C37.9248 32.2871 37.8672 33.077 37.8672 33.7804C37.8672 34.5044 37.9001 35.0968 38.3279 35.5699C38.6776 35.9689 39.1795 36.1705 39.8212 36.1705H42.5568V35.5699H39.8212C39.0149 35.5699 38.7681 35.0063 38.7146 34.8335C38.6488 34.6319 38.6241 34.2864 38.6241 34.0149H41.8123C42.0797 34.0149 42.2895 33.9614 42.4293 33.8586ZM41.9316 33.2127C41.9316 33.2497 41.9316 33.3444 41.8904 33.3855C41.8822 33.3937 41.8616 33.4143 41.804 33.4143H38.62C38.6323 33.0399 38.6653 32.7437 38.8545 32.4722C39.1877 31.995 39.6937 31.9539 40.2696 31.9539C40.718 31.9539 41.2281 31.9539 41.5942 32.3283C41.7464 32.4846 41.9316 32.7643 41.9316 33.2127Z" fill="#221F1F"/>
<path d="M47.9123 31.8352C47.361 31.3703 46.5671 31.3086 45.8595 31.3086C45.1561 31.3086 44.3621 31.3703 43.8109 31.8352C43.3419 32.2301 43.1074 32.8677 43.1074 33.7398C43.1074 34.8423 43.49 35.4018 43.8109 35.6774C44.3909 36.1669 45.2589 36.2245 45.8595 36.2245C46.4642 36.2245 47.3322 36.1669 47.9123 35.6774C48.2331 35.4018 48.6157 34.8423 48.6157 33.7398C48.6198 32.8677 48.3812 32.2301 47.9123 31.8352ZM47.8588 33.7809V33.8056C47.8588 34.1841 47.8588 34.8217 47.4515 35.2043C47.0607 35.5745 46.4272 35.6239 45.8595 35.6239C45.2918 35.6239 44.6624 35.5745 44.2675 35.2043C43.8602 34.8217 43.8602 34.1882 43.8602 33.8056V33.7809C43.8602 33.3984 43.8602 32.6867 44.2551 32.3041C44.6336 31.9503 45.3083 31.901 45.8554 31.901C46.4025 31.901 47.0772 31.9462 47.4556 32.3C47.8588 32.6908 47.8588 33.3984 47.8588 33.7809Z" fill="#221F1F"/>
<path d="M52.3475 34.9323C52.2323 34.7101 52.1706 34.2288 52.1706 33.8832C52.1706 33.6364 52.2035 33.0564 52.2694 32.8301C52.438 32.2748 52.9769 31.958 53.7544 31.958H55.7578V31.3574H53.8161C53.0674 31.3574 52.4751 31.5384 52.0513 31.8963C51.4507 32.4146 51.4014 33.1633 51.4014 33.8257C51.4014 34.4345 51.4425 35.0721 51.9238 35.5575C52.1994 35.8373 52.7178 36.1705 53.6022 36.1705H55.8853V35.5699H53.8696C53.0839 35.5699 52.5697 35.356 52.3475 34.9323Z" fill="#221F1F"/>
<path d="M59.5045 31.3574H56.7278V31.958H59.4757C59.7185 31.958 59.8954 32.0526 59.9817 32.139C60.101 32.2624 60.1627 32.4969 60.1627 32.6244V33.2168H57.8878C57.4148 33.2168 57.061 33.3032 56.8101 33.4801C56.3699 33.7928 56.3164 34.2946 56.3164 34.6484C56.3164 35.2696 56.4933 35.7056 56.843 35.9483C57.1515 36.1581 57.53 36.1746 57.8878 36.1746H59.99C60.1833 36.1746 60.4754 36.1746 60.6687 36.0224C60.8909 35.8455 60.8909 35.574 60.8909 35.4712V32.7067C60.8909 32.2583 60.7716 31.9333 60.5289 31.7153C60.2944 31.4932 59.9036 31.3574 59.5045 31.3574ZM60.1586 33.8133V35.4547C60.1586 35.5082 60.1586 35.5123 60.1257 35.537C60.0805 35.5699 59.9941 35.5699 59.9447 35.5699H57.7356C57.5176 35.5699 57.349 35.4794 57.2667 35.3971C57.098 35.2202 57.0774 34.8911 57.0774 34.6607C57.0774 34.3234 57.1227 34.126 57.2297 34.0067C57.2585 33.9738 57.4148 33.8133 57.7562 33.8133H60.1586Z" fill="#221F1F"/>
<path d="M62.4667 34.9323C62.3515 34.7101 62.2898 34.2288 62.2898 33.8832C62.2898 33.6364 62.3227 33.0564 62.3885 32.8301C62.5572 32.2748 63.0961 31.958 63.8736 31.958H65.877V31.3574H63.9353C63.1866 31.3574 62.5942 31.5384 62.1705 31.8963C61.5699 32.4146 61.5205 33.1633 61.5205 33.8257C61.5205 34.4345 61.5616 35.0721 62.043 35.5575C62.3186 35.8373 62.8369 36.1705 63.7214 36.1705H66.0045V35.5699H63.9887C63.1989 35.5699 62.6888 35.356 62.4667 34.9323Z" fill="#221F1F"/>
<path d="M70.6002 31.7097C70.2917 31.467 69.8803 31.3559 69.2715 31.3559H67.3668V29.875H66.6387V36.169H67.3668V31.9565H69.3249C69.5964 31.9565 69.9091 31.9771 70.1436 32.2075C70.3822 32.4461 70.3822 32.8245 70.3822 32.9521V36.169H71.1103V33.0055C71.1103 32.5901 71.0527 32.0717 70.6002 31.7097Z" fill="#221F1F"/>
<path d="M10.9878 16.3204C10.8232 16.6742 10.6504 16.8634 10.5887 16.8634C10.527 16.8634 10.3584 16.6742 10.1897 16.3204L5.73454 6.90406C5.10925 5.58355 3.7764 4.74023 2.31603 4.74023H0L7.47876 19.2411C8.21512 20.6563 9.67138 20.6851 10.49 20.6851C10.5065 20.6851 10.5229 20.6851 10.5394 20.6851H10.5846C11.5226 20.6851 12.9377 20.6851 13.6576 19.2411L21.1363 4.74023H18.8285C17.3641 4.74023 16.0271 5.58766 15.4059 6.91228L10.9878 16.3204Z" fill="#D92F37"/>
<path d="M22.9347 20.5123H24.8682C25.584 20.5123 26.1681 19.9322 26.1681 19.2123V6.04017C26.1681 5.32439 25.5881 4.74023 24.8682 4.74023H22.9347C22.2189 4.74023 21.6348 5.32027 21.6348 6.04017V19.2123C21.6348 19.9322 22.2189 20.5123 22.9347 20.5123Z" fill="#D92F37"/>
<path d="M73.4996 17.6256C72.9319 17.6256 71.2041 17.6256 70.2415 16.9715C69.1472 16.2475 69.1555 14.9887 69.1637 13.9767V7.62511H73.1828C73.9521 7.62511 74.5732 6.99982 74.5732 6.23467V4.74138H69.1637V2.58579C69.1637 1.77539 68.5055 1.12131 67.6992 1.12131H66.1031C65.2927 1.12131 64.6386 1.7795 64.6386 2.58579V4.74138H61.1049H60.1834H55.6953V2.51175C55.6953 1.74248 55.07 1.11719 54.3008 1.11719H52.5566C51.7873 1.11719 51.162 1.74248 51.162 2.51175V4.74138H48.4922V6.15239C48.4922 6.96691 49.1545 7.62923 49.969 7.62923H51.162V15.3219C51.162 17.1978 51.7749 18.4401 53.1572 19.3492C54.4324 20.1843 55.9092 20.5134 58.4186 20.5134H60.2986C60.8046 20.5134 61.2118 20.102 61.2118 19.6002V17.6297H60.0271C59.4594 17.6297 57.7316 17.6297 56.769 16.9756C55.6748 16.2516 55.683 14.9928 55.6912 13.9808V7.62923H60.2163H61.1008H64.6345V15.3219C64.6345 17.1978 65.2515 18.4401 66.6296 19.3492C67.9049 20.1843 69.3817 20.5134 71.8911 20.5134H73.7669C74.2729 20.5134 74.6802 20.102 74.6802 19.6002V17.6297H73.4996V17.6256Z" fill="#D92F37"/>
<path d="M28.0557 29.8846V30.4893H29.9685L29.9809 36.1745H30.7172L30.7049 30.4893H32.4244V29.8846H28.0557Z" fill="#221F1F"/>
<path d="M58.9547 29.6591L57.8851 30.49C57.7987 30.5559 57.7823 30.6834 57.8522 30.7698L58.0209 30.9755C58.0867 31.0577 58.2101 31.0742 58.2924 31.0084L59.3661 30.1815C59.4525 30.1157 59.4689 29.9882 59.399 29.9018L59.2303 29.692C59.1604 29.6056 59.037 29.5933 58.9547 29.6591Z" fill="#221F1F"/>
<path d="M80.6953 29.6037V30.0768H81.4646C81.4646 30.0768 81.7196 30.1097 81.7196 30.3072C81.7196 30.4964 81.4481 30.5828 81.3206 30.6322C81.3206 30.7926 81.3206 30.953 81.3206 31.1135C81.4605 31.1135 81.6045 31.1135 81.7443 31.1176C81.7608 31.1176 81.7731 31.1176 81.7854 31.1052C81.7978 31.0929 81.8019 31.0723 81.8019 31.0518C81.8101 30.9777 81.8513 30.9078 81.9089 30.8666C81.9829 30.8173 82.0734 30.8091 82.1557 30.7761C82.3244 30.7021 82.4313 30.4964 82.419 30.2989C82.3902 29.7518 81.8184 29.5996 81.4193 29.5996C80.8928 29.6037 80.6953 29.6037 80.6953 29.6037Z" fill="#221F1F"/>
<path d="M100.206 36.5352H99.293V37.3003H100.206V36.5352Z" fill="#221F1F"/>
<path d="M33.4319 15.8688C33.3044 15.4616 33.1934 14.5853 33.181 13.8942H44.3128C45.2795 13.8942 45.9459 13.705 46.4766 13.2813C47.324 12.6025 47.4392 11.6687 47.4392 10.8418C47.4392 9.10585 47.1183 6.95025 44.6295 5.69145C42.7907 4.76175 40.4335 4.68359 38.1751 4.68359C36.3733 4.68359 33.0165 4.68359 30.865 6.16864C28.6765 7.67838 28.5078 9.85867 28.5078 12.7712C28.5078 14.8486 28.6189 17.0042 29.927 18.5057C31.5643 20.3569 33.8927 20.5091 35.9454 20.5091H45.8554C46.3902 20.5091 46.8221 20.0772 46.8221 19.5424V17.6213H37.2289C35.5546 17.6254 33.9379 17.4156 33.4319 15.8688ZM33.1851 11.0434C33.218 10.0808 33.2427 9.32388 34.0408 8.59986C35.1721 7.57143 36.8875 7.57555 38.027 7.57555H38.1175C39.3434 7.57555 40.7379 7.62902 41.8034 8.28311C42.0872 8.46 43.0169 9.12641 43.0169 10.3194C43.0169 10.7184 42.9182 11.1257 42.1695 11.1257H36.1881C35.4107 11.1504 33.7199 11.3355 33.181 12.4421V11.0434H33.1851Z" fill="#D92F37"/>
<path d="M80.6214 15.8688C80.4939 15.4616 80.3828 14.5853 80.3705 13.8942H91.5022C92.4689 13.8942 93.1354 13.705 93.666 13.2813C94.5135 12.6025 94.6286 11.6687 94.6286 10.8418C94.6286 9.10585 94.3078 6.95025 91.819 5.69145C89.9801 4.76175 87.623 4.68359 85.3645 4.68359C83.5627 4.68359 80.2059 4.68359 78.0544 6.16864C75.8659 7.67838 75.6973 9.85867 75.6973 12.7712C75.6973 14.8486 75.8083 17.0042 77.1165 18.5057C78.7538 20.3569 81.0821 20.5091 83.1349 20.5091H93.0449C93.5796 20.5091 94.0116 20.0772 94.0116 19.5424V17.6213H84.4184C82.7441 17.6254 81.1274 17.4156 80.6214 15.8688ZM80.3746 11.0434C80.4075 10.0808 80.4322 9.32388 81.2302 8.59986C82.3615 7.57143 84.0769 7.57555 85.2164 7.57555H85.3069C86.5328 7.57555 87.9274 7.62902 88.9928 8.28311C89.2767 8.46 90.2064 9.12641 90.2064 10.3194C90.2064 10.7184 90.1077 11.1257 89.359 11.1257H83.3776C82.6001 11.1504 80.9094 11.3355 80.3705 12.4421V11.0434H80.3746Z" fill="#D92F37"/>
<path d="M22.8597 0.5C22.1809 0.5 21.6338 1.04713 21.6338 1.7259V2.48282V2.74199V4.68777C22.0164 3.78687 22.9173 3.42486 23.8346 3.33025C23.9827 3.31379 24.3489 3.31379 24.752 3.31379C25.5295 3.3179 26.163 2.6844 26.163 1.9069V1.7259C26.163 1.04713 25.6159 0.5 24.9371 0.5H22.8597Z" fill="#D92F37"/>
<path d="M101.646 15.4693V2.37943C101.646 1.62251 101.033 1.01367 100.28 1.01367H98.4869C97.7299 1.01367 97.1211 1.62662 97.1211 2.37943V15.276C97.1211 18.1679 99.4659 20.5128 102.358 20.5128H105.933C106.801 20.5128 107.5 19.8093 107.5 18.9454V17.629H103.806C102.613 17.6249 101.646 16.6623 101.646 15.4693Z" fill="#D92F37"/>
</svg>
